<?xml version="1.0" encoding="UTF-8" standalone="no"?>
<!-- Created with Inkscape (http://www.inkscape.org/) -->

<svg
   xmlns:dc="http://purl.org/dc/elements/1.1/"
   xmlns:cc="http://creativecommons.org/ns#"
   xmlns:rdf="http://www.w3.org/1999/02/22-rdf-syntax-ns#"
   xmlns:svg="http://www.w3.org/2000/svg"
   xmlns="http://www.w3.org/2000/svg"
   xmlns:xlink="http://www.w3.org/1999/xlink"
   xmlns:sodipodi="http://sodipodi.sourceforge.net/DTD/sodipodi-0.dtd"
   xmlns:inkscape="http://www.inkscape.org/namespaces/inkscape"
   width="210mm"
   height="297mm"
   viewBox="0 0 210 297"
   version="1.1"
   id="svg8"
   sodipodi:docname="LogoBrickMoneyHorizontal.svg"
   inkscape:export-filename="C:\dev\BrickMoney\src\Applications\BrickMoney\images\LogoBrickMoney.png"
   inkscape:export-xdpi="229.98"
   inkscape:export-ydpi="229.98"
   inkscape:version="0.92.1 r15371">
  <defs
     id="defs2">
    <clipPath
       clipPathUnits="userSpaceOnUse"
       id="clipPath4564">
      <use
         x="0"
         y="0"
         xlink:href="#g4560"
         id="use4566"
         width="100%"
         height="100%" />
    </clipPath>
    <clipPath
       clipPathUnits="userSpaceOnUse"
       id="clipPath4573">
      <use
         x="0"
         y="0"
         xlink:href="#g4569"
         id="use4575"
         width="100%"
         height="100%" />
    </clipPath>
    <clipPath
       clipPathUnits="userSpaceOnUse"
       id="clipPath4564-4">
      <g
         style="fill:#262626;fill-opacity:1"
         id="use4566-8"
         inkscape:label="Clip">
        <g
           style="fill:#262626;fill-opacity:1"
           clip-path="url(#clipPath4573-0)"
           id="g4753">
          <g
             style="fill:#262626;fill-opacity:1"
             id="g4751"
             inkscape:label="Clip">
            <path
               clip-path="none"
               sodipodi:nodetypes="ccsccssccccsscsssssccccccscsscccsscssssscccccsccccssscccccscssssscscccssscccssccscccscccccscsccscccssccsscccscsssssssccscscscccscsss"
               inkscape:connector-curvature="0"
               id="path4747"
               d="m 117.15211,76.08023 v -2.38125 h 1.40229 c 0.77126,0 1.54517,0.142875 1.71979,0.3175 0.38611,0.386107 0.41829,1.441064 0.0509,1.668129 -0.16528,0.102153 -0.115,0.316381 0.1323,0.563682 1.01538,1.015386 -0.0575,2.213189 -1.98235,2.213189 h -1.32292 z m 2.53182,1.028753 c 0.21077,-0.341019 -0.33855,-0.75424 -1.01047,-0.760119 -0.28798,-0.0025 -0.46302,0.195993 -0.46302,0.525116 0,0.384643 0.17639,0.529167 0.64585,0.529167 0.35521,0 0.72765,-0.132374 0.82764,-0.294164 z m -0.15057,-2.087086 c 0,-0.388057 -0.17639,-0.529167 -0.66146,-0.529167 -0.48507,0 -0.66146,0.14111 -0.66146,0.529167 0,0.388056 0.17639,0.529167 0.66146,0.529167 0.48507,0 0.66146,-0.141111 0.66146,-0.529167 z m 1.85208,1.058333 v -2.38125 l 1.25677,0.004 c 0.69123,0.0021 1.39333,0.09153 1.56024,0.198438 0.46959,0.300805 0.52836,1.233646 0.12517,1.987063 -0.3276,0.612193 -0.30722,0.755862 0.19844,1.398709 0.70166,0.892008 0.71051,1.174239 0.0368,1.174239 -0.31098,0 -0.77158,-0.377978 -1.12448,-0.922766 -0.75628,-1.167511 -0.99462,-1.168296 -0.99462,-0.0033 0,0.749652 -0.10079,0.926042 -0.52916,0.926042 -0.48997,0 -0.52917,-0.17639 -0.52917,-2.38125 z m 2.06893,-0.994891 c 0.0642,-0.450094 -0.0471,-0.592609 -0.46302,-0.592609 -0.41185,0 -0.54757,0.168762 -0.54757,0.680858 0,0.868452 0.88512,0.79116 1.01059,-0.08825 z m 2.16441,0.994891 c 0,-2.20486 0.0392,-2.38125 0.52916,-2.38125 0.48997,0 0.52917,0.17639 0.52917,2.38125 0,2.20486 -0.0392,2.38125 -0.52917,2.38125 -0.48997,0 -0.52916,-0.17639 -0.52916,-2.38125 z m 2.84067,2.198174 c -0.25664,-0.06693 -0.64359,-0.463925 -0.85989,-0.88221 -0.97518,-1.885792 -0.0344,-3.717248 1.92325,-3.744156 1.15435,-0.01587 2.0357,0.43426 1.7513,0.894432 -0.0893,0.144436 -0.56639,0.182067 -1.08198,0.08534 -1.55977,-0.292613 -2.4896,1.107752 -1.57032,2.364949 0.2782,0.380463 0.56971,0.454014 1.31807,0.332573 1.11161,-0.18039 1.56047,0.239903 0.82812,0.775409 -0.4774,0.349086 -1.37655,0.416724 -2.30855,0.173662 z m 3.24474,-2.198174 c 0,-2.20486 0.0392,-2.38125 0.52917,-2.38125 0.42837,0 0.52917,0.17639 0.52917,0.926042 0,1.170654 0.29404,1.171141 1.09037,0.0019 0.40434,-0.593725 0.8423,-0.92488 1.22473,-0.926042 0.76677,-0.0024 0.75433,0.06325 -0.22319,1.176589 l -0.81851,0.932222 0.97334,1.325941 c 0.96782,1.318445 0.96966,1.325941 0.32532,1.325941 -0.45739,0 -0.86376,-0.31133 -1.38144,-1.058333 -0.40338,-0.582084 -0.83629,-1.058334 -0.96202,-1.058334 -0.12573,0 -0.2286,0.47625 -0.2286,1.058334 0,0.881943 -0.0882,1.058333 -0.52917,1.058333 -0.48997,0 -0.52917,-0.17639 -0.52917,-2.38125 z m 5.82084,0 c 0,-2.153031 0.0476,-2.38125 0.49673,-2.38125 0.33312,0 0.7467,0.477433 1.25565,1.449523 l 0.75892,1.449525 0.73297,-1.449525 c 0.51725,-1.022935 0.88744,-1.449523 1.25788,-1.449523 0.48463,0 0.52493,0.182804 0.52493,2.38125 0,1.903857 -0.0769,2.38125 -0.38367,2.38125 -0.28127,0 -0.40485,-0.404402 -0.46302,-1.515221 l -0.0793,-1.515224 -0.66101,1.250641 c -0.36355,0.68785 -0.79001,1.250637 -0.94769,1.250637 -0.15768,0 -0.60148,-0.565546 -0.98621,-1.25677 l -0.69951,-1.256771 -0.006,1.521354 c -0.005,1.173065 -0.0973,1.521354 -0.40332,1.521354 -0.32337,0 -0.39687,-0.440973 -0.39687,-2.38125 z m 6.32964,1.607852 c -0.86731,-0.867317 -0.98287,-1.758209 -0.37942,-2.925157 0.65661,-1.269748 2.63936,-1.537843 3.73827,-0.505468 0.89439,0.840235 0.88462,2.650795 -0.0192,3.55459 -0.93843,0.938432 -2.32889,0.88682 -3.33967,-0.123965 z m 2.61327,-0.602435 c 0.17463,-0.174625 0.3175,-0.686594 0.3175,-1.137708 0,-1.395561 -1.14742,-1.935486 -2.16198,-1.017326 -0.9372,0.848159 -0.41461,2.472534 0.79546,2.472534 0.40234,0 0.8744,-0.142875 1.04902,-0.3175 z m 1.905,-1.005417 c 0,-2.11397 0.0533,-2.38125 0.4748,-2.38125 0.26157,0 0.94481,0.617683 1.52135,1.375376 l 1.04656,1.375373 0.08,-1.375373 c 0.0674,-1.159314 0.16093,-1.375376 0.59531,-1.375376 0.47256,0 0.51534,0.197686 0.51534,2.38125 0,2.905771 -0.24575,3.018277 -1.96984,0.901787 l -1.20516,-1.479462 v 1.479462 c 0,1.303073 -0.0631,1.479463 -0.52916,1.479463 -0.48997,0 -0.52917,-0.17639 -0.52917,-2.38125 z m 4.93889,2.20486 c -0.097,-0.09701 -0.17639,-1.168574 -0.17639,-2.38125 v -2.20486 h 1.5875 c 1.23473,0 1.5875,0.08819 1.5875,0.396875 0,0.286631 -0.29398,0.396875 -1.05833,0.396875 -0.8704,0 -1.05833,0.09099 -1.05833,0.512403 0,0.381735 0.21408,0.533545 0.83952,0.595312 1.21294,0.119788 1.30404,0.744369 0.10857,0.744369 -0.76187,0 -0.94809,0.1008 -0.94809,0.513193 0,0.401804 0.21488,0.531022 0.98998,0.595313 0.69187,0.05739 1.01641,0.221549 1.07774,0.545139 0.0748,0.3947 -0.12334,0.463021 -1.34277,0.463021 -0.78678,0 -1.50988,-0.07937 -1.6069,-0.17639 z m 4.8507,-0.745677 c 0,-0.561462 -0.31043,-1.426568 -0.79375,-2.212076 -0.93759,-1.523775 -0.95499,-1.628357 -0.27091,-1.628357 0.33389,0 0.7003,0.345901 1.01387,0.957107 l 0.49103,0.957106 0.5647,-0.957106 c 0.36479,-0.618271 0.76208,-0.957107 1.12222,-0.957107 0.53522,0 0.52501,0.0568 -0.25566,1.42127 -0.49728,0.869146 -0.81317,1.794196 -0.81317,2.38125 0,0.78359 -0.0972,0.95998 -0.52917,0.95998 -0.42794,0 -0.52916,-0.17639 -0.52916,-0.922067 z"
               style="fill:#262626;fill-opacity:1;stroke-width:0.26458332" />
            <path
               style="fill:#262626;fill-opacity:1;stroke-width:0.26458332"
               d="m 117.15211,76.08023 v -2.38125 h 1.40229 c 0.77126,0 1.54517,0.142875 1.71979,0.3175 0.38611,0.386107 0.41829,1.441064 0.0509,1.668129 -0.16528,0.102153 -0.115,0.316381 0.1323,0.563682 1.01538,1.015386 -0.0575,2.213189 -1.98235,2.213189 h -1.32292 z m 2.53182,1.028753 c 0.21077,-0.341019 -0.33855,-0.75424 -1.01047,-0.760119 -0.28798,-0.0025 -0.46302,0.195993 -0.46302,0.525116 0,0.384643 0.17639,0.529167 0.64585,0.529167 0.35521,0 0.72765,-0.132374 0.82764,-0.294164 z m -0.15057,-2.087086 c 0,-0.388057 -0.17639,-0.529167 -0.66146,-0.529167 -0.48507,0 -0.66146,0.14111 -0.66146,0.529167 0,0.388056 0.17639,0.529167 0.66146,0.529167 0.48507,0 0.66146,-0.141111 0.66146,-0.529167 z m 1.85208,1.058333 v -2.38125 l 1.25677,0.004 c 0.69123,0.0021 1.39333,0.09153 1.56024,0.198438 0.46959,0.300805 0.52836,1.233646 0.12517,1.987063 -0.3276,0.612193 -0.30722,0.755862 0.19844,1.398709 0.70166,0.892008 0.71051,1.174239 0.0368,1.174239 -0.31098,0 -0.77158,-0.377978 -1.12448,-0.922766 -0.75628,-1.167511 -0.99462,-1.168296 -0.99462,-0.0033 0,0.749652 -0.10079,0.926042 -0.52916,0.926042 -0.48997,0 -0.52917,-0.17639 -0.52917,-2.38125 z m 2.06893,-0.994891 c 0.0642,-0.450094 -0.0471,-0.592609 -0.46302,-0.592609 -0.41185,0 -0.54757,0.168762 -0.54757,0.680858 0,0.868452 0.88512,0.79116 1.01059,-0.08825 z m 2.16441,0.994891 c 0,-2.20486 0.0392,-2.38125 0.52916,-2.38125 0.48997,0 0.52917,0.17639 0.52917,2.38125 0,2.20486 -0.0392,2.38125 -0.52917,2.38125 -0.48997,0 -0.52916,-0.17639 -0.52916,-2.38125 z m 2.84067,2.198174 c -0.25664,-0.06693 -0.64359,-0.463925 -0.85989,-0.88221 -0.97518,-1.885792 -0.0344,-3.717248 1.92325,-3.744156 1.15435,-0.01587 2.0357,0.43426 1.7513,0.894432 -0.0893,0.144436 -0.56639,0.182067 -1.08198,0.08534 -1.55977,-0.292613 -2.4896,1.107752 -1.57032,2.364949 0.2782,0.380463 0.56971,0.454014 1.31807,0.332573 1.11161,-0.18039 1.56047,0.239903 0.82812,0.775409 -0.4774,0.349086 -1.37655,0.416724 -2.30855,0.173662 z m 3.24474,-2.198174 c 0,-2.20486 0.0392,-2.38125 0.52917,-2.38125 0.42837,0 0.52917,0.17639 0.52917,0.926042 0,1.170654 0.29404,1.171141 1.09037,0.0019 0.40434,-0.593725 0.8423,-0.92488 1.22473,-0.926042 0.76677,-0.0024 0.75433,0.06325 -0.22319,1.176589 l -0.81851,0.932222 0.97334,1.325941 c 0.96782,1.318445 0.96966,1.325941 0.32532,1.325941 -0.45739,0 -0.86376,-0.31133 -1.38144,-1.058333 -0.40338,-0.582084 -0.83629,-1.058334 -0.96202,-1.058334 -0.12573,0 -0.2286,0.47625 -0.2286,1.058334 0,0.881943 -0.0882,1.058333 -0.52917,1.058333 -0.48997,0 -0.52917,-0.17639 -0.52917,-2.38125 z m 5.82084,0 c 0,-2.153031 0.0476,-2.38125 0.49673,-2.38125 0.33312,0 0.7467,0.477433 1.25565,1.449523 l 0.75892,1.449525 0.73297,-1.449525 c 0.51725,-1.022935 0.88744,-1.449523 1.25788,-1.449523 0.48463,0 0.52493,0.182804 0.52493,2.38125 0,1.903857 -0.0769,2.38125 -0.38367,2.38125 -0.28127,0 -0.40485,-0.404402 -0.46302,-1.515221 l -0.0793,-1.515224 -0.66101,1.250641 c -0.36355,0.68785 -0.79001,1.250637 -0.94769,1.250637 -0.15768,0 -0.60148,-0.565546 -0.98621,-1.25677 l -0.69951,-1.256771 -0.006,1.521354 c -0.005,1.173065 -0.0973,1.521354 -0.40332,1.521354 -0.32337,0 -0.39687,-0.440973 -0.39687,-2.38125 z m 6.32964,1.607852 c -0.86731,-0.867317 -0.98287,-1.758209 -0.37942,-2.925157 0.65661,-1.269748 2.63936,-1.537843 3.73827,-0.505468 0.89439,0.840235 0.88462,2.650795 -0.0192,3.55459 -0.93843,0.938432 -2.32889,0.88682 -3.33967,-0.123965 z m 2.61327,-0.602435 c 0.17463,-0.174625 0.3175,-0.686594 0.3175,-1.137708 0,-1.395561 -1.14742,-1.935486 -2.16198,-1.017326 -0.9372,0.848159 -0.41461,2.472534 0.79546,2.472534 0.40234,0 0.8744,-0.142875 1.04902,-0.3175 z m 1.905,-1.005417 c 0,-2.11397 0.0533,-2.38125 0.4748,-2.38125 0.26157,0 0.94481,0.617683 1.52135,1.375376 l 1.04656,1.375373 0.08,-1.375373 c 0.0674,-1.159314 0.16093,-1.375376 0.59531,-1.375376 0.47256,0 0.51534,0.197686 0.51534,2.38125 0,2.905771 -0.24575,3.018277 -1.96984,0.901787 l -1.20516,-1.479462 v 1.479462 c 0,1.303073 -0.0631,1.479463 -0.52916,1.479463 -0.48997,0 -0.52917,-0.17639 -0.52917,-2.38125 z m 4.93889,2.20486 c -0.097,-0.09701 -0.17639,-1.168574 -0.17639,-2.38125 v -2.20486 h 1.5875 c 1.23473,0 1.5875,0.08819 1.5875,0.396875 0,0.286631 -0.29398,0.396875 -1.05833,0.396875 -0.8704,0 -1.05833,0.09099 -1.05833,0.512403 0,0.381735 0.21408,0.533545 0.83952,0.595312 1.21294,0.119788 1.30404,0.744369 0.10857,0.744369 -0.76187,0 -0.94809,0.1008 -0.94809,0.513193 0,0.401804 0.21488,0.531022 0.98998,0.595313 0.69187,0.05739 1.01641,0.221549 1.07774,0.545139 0.0748,0.3947 -0.12334,0.463021 -1.34277,0.463021 -0.78678,0 -1.50988,-0.07937 -1.6069,-0.17639 z m 4.8507,-0.745677 c 0,-0.561462 -0.31043,-1.426568 -0.79375,-2.212076 -0.93759,-1.523775 -0.95499,-1.628357 -0.27091,-1.628357 0.33389,0 0.7003,0.345901 1.01387,0.957107 l 0.49103,0.957106 0.5647,-0.957106 c 0.36479,-0.618271 0.76208,-0.957107 1.12222,-0.957107 0.53522,0 0.52501,0.0568 -0.25566,1.42127 -0.49728,0.869146 -0.81317,1.794196 -0.81317,2.38125 0,0.78359 -0.0972,0.95998 -0.52917,0.95998 -0.42794,0 -0.52916,-0.17639 -0.52916,-0.922067 z"
               id="path4749"
               inkscape:connector-curvature="0"
               sodipodi:nodetypes="ccsccssccccsscsssssccccccscsscccsscssssscccccsccccssscccccscssssscscccssscccssccscccscccccscsccscccssccsscccscsssssssccscscscccscsss"
               clip-path="none" />
          </g>
        </g>
      </g>
    </clipPath>
    <clipPath
       clipPathUnits="userSpaceOnUse"
       id="clipPath4573-0">
      <g
         style="fill:#262626;fill-opacity:1"
         id="use4575-8"
         inkscape:label="Clip">
        <path
           clip-path="none"
           sodipodi:nodetypes="ccsccssccccsscsssssccccccscsscccsscssssscccccsccccssscccccscssssscscccssscccssccscccscccccscsccscccssccsscccscsssssssccscscscccscsss"
           inkscape:connector-curvature="0"
           id="path4757"
           d="m 117.15211,76.08023 v -2.38125 h 1.40229 c 0.77126,0 1.54517,0.142875 1.71979,0.3175 0.38611,0.386107 0.41829,1.441064 0.0509,1.668129 -0.16528,0.102153 -0.115,0.316381 0.1323,0.563682 1.01538,1.015386 -0.0575,2.213189 -1.98235,2.213189 h -1.32292 z m 2.53182,1.028753 c 0.21077,-0.341019 -0.33855,-0.75424 -1.01047,-0.760119 -0.28798,-0.0025 -0.46302,0.195993 -0.46302,0.525116 0,0.384643 0.17639,0.529167 0.64585,0.529167 0.35521,0 0.72765,-0.132374 0.82764,-0.294164 z m -0.15057,-2.087086 c 0,-0.388057 -0.17639,-0.529167 -0.66146,-0.529167 -0.48507,0 -0.66146,0.14111 -0.66146,0.529167 0,0.388056 0.17639,0.529167 0.66146,0.529167 0.48507,0 0.66146,-0.141111 0.66146,-0.529167 z m 1.85208,1.058333 v -2.38125 l 1.25677,0.004 c 0.69123,0.0021 1.39333,0.09153 1.56024,0.198438 0.46959,0.300805 0.52836,1.233646 0.12517,1.987063 -0.3276,0.612193 -0.30722,0.755862 0.19844,1.398709 0.70166,0.892008 0.71051,1.174239 0.0368,1.174239 -0.31098,0 -0.77158,-0.377978 -1.12448,-0.922766 -0.75628,-1.167511 -0.99462,-1.168296 -0.99462,-0.0033 0,0.749652 -0.10079,0.926042 -0.52916,0.926042 -0.48997,0 -0.52917,-0.17639 -0.52917,-2.38125 z m 2.06893,-0.994891 c 0.0642,-0.450094 -0.0471,-0.592609 -0.46302,-0.592609 -0.41185,0 -0.54757,0.168762 -0.54757,0.680858 0,0.868452 0.88512,0.79116 1.01059,-0.08825 z m 2.16441,0.994891 c 0,-2.20486 0.0392,-2.38125 0.52916,-2.38125 0.48997,0 0.52917,0.17639 0.52917,2.38125 0,2.20486 -0.0392,2.38125 -0.52917,2.38125 -0.48997,0 -0.52916,-0.17639 -0.52916,-2.38125 z m 2.84067,2.198174 c -0.25664,-0.06693 -0.64359,-0.463925 -0.85989,-0.88221 -0.97518,-1.885792 -0.0344,-3.717248 1.92325,-3.744156 1.15435,-0.01587 2.0357,0.43426 1.7513,0.894432 -0.0893,0.144436 -0.56639,0.182067 -1.08198,0.08534 -1.55977,-0.292613 -2.4896,1.107752 -1.57032,2.364949 0.2782,0.380463 0.56971,0.454014 1.31807,0.332573 1.11161,-0.18039 1.56047,0.239903 0.82812,0.775409 -0.4774,0.349086 -1.37655,0.416724 -2.30855,0.173662 z m 3.24474,-2.198174 c 0,-2.20486 0.0392,-2.38125 0.52917,-2.38125 0.42837,0 0.52917,0.17639 0.52917,0.926042 0,1.170654 0.29404,1.171141 1.09037,0.0019 0.40434,-0.593725 0.8423,-0.92488 1.22473,-0.926042 0.76677,-0.0024 0.75433,0.06325 -0.22319,1.176589 l -0.81851,0.932222 0.97334,1.325941 c 0.96782,1.318445 0.96966,1.325941 0.32532,1.325941 -0.45739,0 -0.86376,-0.31133 -1.38144,-1.058333 -0.40338,-0.582084 -0.83629,-1.058334 -0.96202,-1.058334 -0.12573,0 -0.2286,0.47625 -0.2286,1.058334 0,0.881943 -0.0882,1.058333 -0.52917,1.058333 -0.48997,0 -0.52917,-0.17639 -0.52917,-2.38125 z m 5.82084,0 c 0,-2.153031 0.0476,-2.38125 0.49673,-2.38125 0.33312,0 0.7467,0.477433 1.25565,1.449523 l 0.75892,1.449525 0.73297,-1.449525 c 0.51725,-1.022935 0.88744,-1.449523 1.25788,-1.449523 0.48463,0 0.52493,0.182804 0.52493,2.38125 0,1.903857 -0.0769,2.38125 -0.38367,2.38125 -0.28127,0 -0.40485,-0.404402 -0.46302,-1.515221 l -0.0793,-1.515224 -0.66101,1.250641 c -0.36355,0.68785 -0.79001,1.250637 -0.94769,1.250637 -0.15768,0 -0.60148,-0.565546 -0.98621,-1.25677 l -0.69951,-1.256771 -0.006,1.521354 c -0.005,1.173065 -0.0973,1.521354 -0.40332,1.521354 -0.32337,0 -0.39687,-0.440973 -0.39687,-2.38125 z m 6.32964,1.607852 c -0.86731,-0.867317 -0.98287,-1.758209 -0.37942,-2.925157 0.65661,-1.269748 2.63936,-1.537843 3.73827,-0.505468 0.89439,0.840235 0.88462,2.650795 -0.0192,3.55459 -0.93843,0.938432 -2.32889,0.88682 -3.33967,-0.123965 z m 2.61327,-0.602435 c 0.17463,-0.174625 0.3175,-0.686594 0.3175,-1.137708 0,-1.395561 -1.14742,-1.935486 -2.16198,-1.017326 -0.9372,0.848159 -0.41461,2.472534 0.79546,2.472534 0.40234,0 0.8744,-0.142875 1.04902,-0.3175 z m 1.905,-1.005417 c 0,-2.11397 0.0533,-2.38125 0.4748,-2.38125 0.26157,0 0.94481,0.617683 1.52135,1.375376 l 1.04656,1.375373 0.08,-1.375373 c 0.0674,-1.159314 0.16093,-1.375376 0.59531,-1.375376 0.47256,0 0.51534,0.197686 0.51534,2.38125 0,2.905771 -0.24575,3.018277 -1.96984,0.901787 l -1.20516,-1.479462 v 1.479462 c 0,1.303073 -0.0631,1.479463 -0.52916,1.479463 -0.48997,0 -0.52917,-0.17639 -0.52917,-2.38125 z m 4.93889,2.20486 c -0.097,-0.09701 -0.17639,-1.168574 -0.17639,-2.38125 v -2.20486 h 1.5875 c 1.23473,0 1.5875,0.08819 1.5875,0.396875 0,0.286631 -0.29398,0.396875 -1.05833,0.396875 -0.8704,0 -1.05833,0.09099 -1.05833,0.512403 0,0.381735 0.21408,0.533545 0.83952,0.595312 1.21294,0.119788 1.30404,0.744369 0.10857,0.744369 -0.76187,0 -0.94809,0.1008 -0.94809,0.513193 0,0.401804 0.21488,0.531022 0.98998,0.595313 0.69187,0.05739 1.01641,0.221549 1.07774,0.545139 0.0748,0.3947 -0.12334,0.463021 -1.34277,0.463021 -0.78678,0 -1.50988,-0.07937 -1.6069,-0.17639 z m 4.8507,-0.745677 c 0,-0.561462 -0.31043,-1.426568 -0.79375,-2.212076 -0.93759,-1.523775 -0.95499,-1.628357 -0.27091,-1.628357 0.33389,0 0.7003,0.345901 1.01387,0.957107 l 0.49103,0.957106 0.5647,-0.957106 c 0.36479,-0.618271 0.76208,-0.957107 1.12222,-0.957107 0.53522,0 0.52501,0.0568 -0.25566,1.42127 -0.49728,0.869146 -0.81317,1.794196 -0.81317,2.38125 0,0.78359 -0.0972,0.95998 -0.52917,0.95998 -0.42794,0 -0.52916,-0.17639 -0.52916,-0.922067 z"
           style="fill:#262626;fill-opacity:1;stroke-width:0.26458332" />
        <path
           style="fill:#262626;fill-opacity:1;stroke-width:0.26458332"
           d="m 117.15211,76.08023 v -2.38125 h 1.40229 c 0.77126,0 1.54517,0.142875 1.71979,0.3175 0.38611,0.386107 0.41829,1.441064 0.0509,1.668129 -0.16528,0.102153 -0.115,0.316381 0.1323,0.563682 1.01538,1.015386 -0.0575,2.213189 -1.98235,2.213189 h -1.32292 z m 2.53182,1.028753 c 0.21077,-0.341019 -0.33855,-0.75424 -1.01047,-0.760119 -0.28798,-0.0025 -0.46302,0.195993 -0.46302,0.525116 0,0.384643 0.17639,0.529167 0.64585,0.529167 0.35521,0 0.72765,-0.132374 0.82764,-0.294164 z m -0.15057,-2.087086 c 0,-0.388057 -0.17639,-0.529167 -0.66146,-0.529167 -0.48507,0 -0.66146,0.14111 -0.66146,0.529167 0,0.388056 0.17639,0.529167 0.66146,0.529167 0.48507,0 0.66146,-0.141111 0.66146,-0.529167 z m 1.85208,1.058333 v -2.38125 l 1.25677,0.004 c 0.69123,0.0021 1.39333,0.09153 1.56024,0.198438 0.46959,0.300805 0.52836,1.233646 0.12517,1.987063 -0.3276,0.612193 -0.30722,0.755862 0.19844,1.398709 0.70166,0.892008 0.71051,1.174239 0.0368,1.174239 -0.31098,0 -0.77158,-0.377978 -1.12448,-0.922766 -0.75628,-1.167511 -0.99462,-1.168296 -0.99462,-0.0033 0,0.749652 -0.10079,0.926042 -0.52916,0.926042 -0.48997,0 -0.52917,-0.17639 -0.52917,-2.38125 z m 2.06893,-0.994891 c 0.0642,-0.450094 -0.0471,-0.592609 -0.46302,-0.592609 -0.41185,0 -0.54757,0.168762 -0.54757,0.680858 0,0.868452 0.88512,0.79116 1.01059,-0.08825 z m 2.16441,0.994891 c 0,-2.20486 0.0392,-2.38125 0.52916,-2.38125 0.48997,0 0.52917,0.17639 0.52917,2.38125 0,2.20486 -0.0392,2.38125 -0.52917,2.38125 -0.48997,0 -0.52916,-0.17639 -0.52916,-2.38125 z m 2.84067,2.198174 c -0.25664,-0.06693 -0.64359,-0.463925 -0.85989,-0.88221 -0.97518,-1.885792 -0.0344,-3.717248 1.92325,-3.744156 1.15435,-0.01587 2.0357,0.43426 1.7513,0.894432 -0.0893,0.144436 -0.56639,0.182067 -1.08198,0.08534 -1.55977,-0.292613 -2.4896,1.107752 -1.57032,2.364949 0.2782,0.380463 0.56971,0.454014 1.31807,0.332573 1.11161,-0.18039 1.56047,0.239903 0.82812,0.775409 -0.4774,0.349086 -1.37655,0.416724 -2.30855,0.173662 z m 3.24474,-2.198174 c 0,-2.20486 0.0392,-2.38125 0.52917,-2.38125 0.42837,0 0.52917,0.17639 0.52917,0.926042 0,1.170654 0.29404,1.171141 1.09037,0.0019 0.40434,-0.593725 0.8423,-0.92488 1.22473,-0.926042 0.76677,-0.0024 0.75433,0.06325 -0.22319,1.176589 l -0.81851,0.932222 0.97334,1.325941 c 0.96782,1.318445 0.96966,1.325941 0.32532,1.325941 -0.45739,0 -0.86376,-0.31133 -1.38144,-1.058333 -0.40338,-0.582084 -0.83629,-1.058334 -0.96202,-1.058334 -0.12573,0 -0.2286,0.47625 -0.2286,1.058334 0,0.881943 -0.0882,1.058333 -0.52917,1.058333 -0.48997,0 -0.52917,-0.17639 -0.52917,-2.38125 z m 5.82084,0 c 0,-2.153031 0.0476,-2.38125 0.49673,-2.38125 0.33312,0 0.7467,0.477433 1.25565,1.449523 l 0.75892,1.449525 0.73297,-1.449525 c 0.51725,-1.022935 0.88744,-1.449523 1.25788,-1.449523 0.48463,0 0.52493,0.182804 0.52493,2.38125 0,1.903857 -0.0769,2.38125 -0.38367,2.38125 -0.28127,0 -0.40485,-0.404402 -0.46302,-1.515221 l -0.0793,-1.515224 -0.66101,1.250641 c -0.36355,0.68785 -0.79001,1.250637 -0.94769,1.250637 -0.15768,0 -0.60148,-0.565546 -0.98621,-1.25677 l -0.69951,-1.256771 -0.006,1.521354 c -0.005,1.173065 -0.0973,1.521354 -0.40332,1.521354 -0.32337,0 -0.39687,-0.440973 -0.39687,-2.38125 z m 6.32964,1.607852 c -0.86731,-0.867317 -0.98287,-1.758209 -0.37942,-2.925157 0.65661,-1.269748 2.63936,-1.537843 3.73827,-0.505468 0.89439,0.840235 0.88462,2.650795 -0.0192,3.55459 -0.93843,0.938432 -2.32889,0.88682 -3.33967,-0.123965 z m 2.61327,-0.602435 c 0.17463,-0.174625 0.3175,-0.686594 0.3175,-1.137708 0,-1.395561 -1.14742,-1.935486 -2.16198,-1.017326 -0.9372,0.848159 -0.41461,2.472534 0.79546,2.472534 0.40234,0 0.8744,-0.142875 1.04902,-0.3175 z m 1.905,-1.005417 c 0,-2.11397 0.0533,-2.38125 0.4748,-2.38125 0.26157,0 0.94481,0.617683 1.52135,1.375376 l 1.04656,1.375373 0.08,-1.375373 c 0.0674,-1.159314 0.16093,-1.375376 0.59531,-1.375376 0.47256,0 0.51534,0.197686 0.51534,2.38125 0,2.905771 -0.24575,3.018277 -1.96984,0.901787 l -1.20516,-1.479462 v 1.479462 c 0,1.303073 -0.0631,1.479463 -0.52916,1.479463 -0.48997,0 -0.52917,-0.17639 -0.52917,-2.38125 z m 4.93889,2.20486 c -0.097,-0.09701 -0.17639,-1.168574 -0.17639,-2.38125 v -2.20486 h 1.5875 c 1.23473,0 1.5875,0.08819 1.5875,0.396875 0,0.286631 -0.29398,0.396875 -1.05833,0.396875 -0.8704,0 -1.05833,0.09099 -1.05833,0.512403 0,0.381735 0.21408,0.533545 0.83952,0.595312 1.21294,0.119788 1.30404,0.744369 0.10857,0.744369 -0.76187,0 -0.94809,0.1008 -0.94809,0.513193 0,0.401804 0.21488,0.531022 0.98998,0.595313 0.69187,0.05739 1.01641,0.221549 1.07774,0.545139 0.0748,0.3947 -0.12334,0.463021 -1.34277,0.463021 -0.78678,0 -1.50988,-0.07937 -1.6069,-0.17639 z m 4.8507,-0.745677 c 0,-0.561462 -0.31043,-1.426568 -0.79375,-2.212076 -0.93759,-1.523775 -0.95499,-1.628357 -0.27091,-1.628357 0.33389,0 0.7003,0.345901 1.01387,0.957107 l 0.49103,0.957106 0.5647,-0.957106 c 0.36479,-0.618271 0.76208,-0.957107 1.12222,-0.957107 0.53522,0 0.52501,0.0568 -0.25566,1.42127 -0.49728,0.869146 -0.81317,1.794196 -0.81317,2.38125 0,0.78359 -0.0972,0.95998 -0.52917,0.95998 -0.42794,0 -0.52916,-0.17639 -0.52916,-0.922067 z"
           id="path4759"
           inkscape:connector-curvature="0"
           sodipodi:nodetypes="ccsccssccccsscsssssccccccscsscccsscssssscccccsccccssscccccscssssscscccssscccssccscccscccccscsccscccssccsscccscsssssssccscscscccscsss"
           clip-path="none" />
      </g>
    </clipPath>
  </defs>
  <sodipodi:namedview
     id="base"
     pagecolor="#ffffff"
     bordercolor="#666666"
     borderopacity="1.0"
     inkscape:pageopacity="0.0"
     inkscape:pageshadow="2"
     inkscape:zoom="1.979899"
     inkscape:cx="335.23751"
     inkscape:cy="980.06764"
     inkscape:document-units="mm"
     inkscape:current-layer="layer1"
     showgrid="false"
     inkscape:window-width="1920"
     inkscape:window-height="1017"
     inkscape:window-x="-8"
     inkscape:window-y="-8"
     inkscape:window-maximized="1" />
  <metadata
     id="metadata5">
    <rdf:RDF>
      <cc:Work
         rdf:about="">
        <dc:format>image/svg+xml</dc:format>
        <dc:type
           rdf:resource="http://purl.org/dc/dcmitype/StillImage" />
        <dc:title></dc:title>
      </cc:Work>
    </rdf:RDF>
  </metadata>
  <g
     inkscape:label="Ebene 1"
     inkscape:groupmode="layer"
     id="layer1">
    <text
       xml:space="preserve"
       style="font-style:normal;font-weight:normal;font-size:15.02754402px;line-height:125%;font-family:Sans;letter-spacing:0px;word-spacing:0px;fill:#bf2517;fill-opacity:1;stroke:none;stroke-width:0.37568861px;stroke-linecap:butt;stroke-linejoin:miter;stroke-opacity:1"
       x="50.639545"
       y="39.39151"
       id="text4500"
       transform="scale(1.0132446,0.98692853)"
       inkscape:export-xdpi="96"
       inkscape:export-ydpi="96"><tspan
         sodipodi:role="line"
         id="tspan4498"
         x="50.639545"
         y="39.39151"
         style="fill:#bf2517;fill-opacity:1;stroke-width:0.37568861px">€</tspan></text>
    <g
       id="g4562"
       clip-path="url(#clipPath4564)"
       transform="matrix(1.9275867,0,0,3.7497981,-157.13508,-246.89816)"
       style="fill:#262626;fill-opacity:1"
       inkscape:export-xdpi="96"
       inkscape:export-ydpi="96">
      <g
         inkscape:label="Clip"
         id="g4560"
         style="fill:#262626;fill-opacity:1">
        <g
           id="g4571"
           clip-path="url(#clipPath4573)"
           style="fill:#262626;fill-opacity:1">
          <g
             inkscape:label="Clip"
             id="g4569"
             style="fill:#262626;fill-opacity:1">
            <path
               style="fill:#262626;fill-opacity:1;stroke-width:0.26458332"
               d="m 117.15211,76.08023 v -2.38125 h 1.40229 c 0.77126,0 1.54517,0.142875 1.71979,0.3175 0.38611,0.386107 0.41829,1.441064 0.0509,1.668129 -0.16528,0.102153 -0.115,0.316381 0.1323,0.563682 1.01538,1.015386 -0.0575,2.213189 -1.98235,2.213189 h -1.32292 z m 2.53182,1.028753 c 0.21077,-0.341019 -0.33855,-0.75424 -1.01047,-0.760119 -0.28798,-0.0025 -0.46302,0.195993 -0.46302,0.525116 0,0.384643 0.17639,0.529167 0.64585,0.529167 0.35521,0 0.72765,-0.132374 0.82764,-0.294164 z m -0.15057,-2.087086 c 0,-0.388057 -0.17639,-0.529167 -0.66146,-0.529167 -0.48507,0 -0.66146,0.14111 -0.66146,0.529167 0,0.388056 0.17639,0.529167 0.66146,0.529167 0.48507,0 0.66146,-0.141111 0.66146,-0.529167 z m 1.85208,1.058333 v -2.38125 l 1.25677,0.004 c 0.69123,0.0021 1.39333,0.09153 1.56024,0.198438 0.46959,0.300805 0.52836,1.233646 0.12517,1.987063 -0.3276,0.612193 -0.30722,0.755862 0.19844,1.398709 0.70166,0.892008 0.71051,1.174239 0.0368,1.174239 -0.31098,0 -0.77158,-0.377978 -1.12448,-0.922766 -0.75628,-1.167511 -0.99462,-1.168296 -0.99462,-0.0033 0,0.749652 -0.10079,0.926042 -0.52916,0.926042 -0.48997,0 -0.52917,-0.17639 -0.52917,-2.38125 z m 2.06893,-0.994891 c 0.0642,-0.450094 -0.0471,-0.592609 -0.46302,-0.592609 -0.41185,0 -0.54757,0.168762 -0.54757,0.680858 0,0.868452 0.88512,0.79116 1.01059,-0.08825 z m 2.16441,0.994891 c 0,-2.20486 0.0392,-2.38125 0.52916,-2.38125 0.48997,0 0.52917,0.17639 0.52917,2.38125 0,2.20486 -0.0392,2.38125 -0.52917,2.38125 -0.48997,0 -0.52916,-0.17639 -0.52916,-2.38125 z m 2.84067,2.198174 c -0.25664,-0.06693 -0.64359,-0.463925 -0.85989,-0.88221 -0.97518,-1.885792 -0.0344,-3.717248 1.92325,-3.744156 1.15435,-0.01587 2.0357,0.43426 1.7513,0.894432 -0.0893,0.144436 -0.56639,0.182067 -1.08198,0.08534 -1.55977,-0.292613 -2.4896,1.107752 -1.57032,2.364949 0.2782,0.380463 0.56971,0.454014 1.31807,0.332573 1.11161,-0.18039 1.56047,0.239903 0.82812,0.775409 -0.4774,0.349086 -1.37655,0.416724 -2.30855,0.173662 z m 3.24474,-2.198174 c 0,-2.20486 0.0392,-2.38125 0.52917,-2.38125 0.42837,0 0.52917,0.17639 0.52917,0.926042 0,1.170654 0.29404,1.171141 1.09037,0.0019 0.40434,-0.593725 0.8423,-0.92488 1.22473,-0.926042 0.76677,-0.0024 0.75433,0.06325 -0.22319,1.176589 l -0.81851,0.932222 0.97334,1.325941 c 0.96782,1.318445 0.96966,1.325941 0.32532,1.325941 -0.45739,0 -0.86376,-0.31133 -1.38144,-1.058333 -0.40338,-0.582084 -0.83629,-1.058334 -0.96202,-1.058334 -0.12573,0 -0.2286,0.47625 -0.2286,1.058334 0,0.881943 -0.0882,1.058333 -0.52917,1.058333 -0.48997,0 -0.52917,-0.17639 -0.52917,-2.38125 z m 5.82084,0 c 0,-2.153031 0.0476,-2.38125 0.49673,-2.38125 0.33312,0 0.7467,0.477433 1.25565,1.449523 l 0.75892,1.449525 0.73297,-1.449525 c 0.51725,-1.022935 0.88744,-1.449523 1.25788,-1.449523 0.48463,0 0.52493,0.182804 0.52493,2.38125 0,1.903857 -0.0769,2.38125 -0.38367,2.38125 -0.28127,0 -0.40485,-0.404402 -0.46302,-1.515221 l -0.0793,-1.515224 -0.66101,1.250641 c -0.36355,0.68785 -0.79001,1.250637 -0.94769,1.250637 -0.15768,0 -0.60148,-0.565546 -0.98621,-1.25677 l -0.69951,-1.256771 -0.006,1.521354 c -0.005,1.173065 -0.0973,1.521354 -0.40332,1.521354 -0.32337,0 -0.39687,-0.440973 -0.39687,-2.38125 z m 6.32964,1.607852 c -0.86731,-0.867317 -0.98287,-1.758209 -0.37942,-2.925157 0.65661,-1.269748 2.63936,-1.537843 3.73827,-0.505468 0.89439,0.840235 0.88462,2.650795 -0.0192,3.55459 -0.93843,0.938432 -2.32889,0.88682 -3.33967,-0.123965 z m 2.61327,-0.602435 c 0.17463,-0.174625 0.3175,-0.686594 0.3175,-1.137708 0,-1.395561 -1.14742,-1.935486 -2.16198,-1.017326 -0.9372,0.848159 -0.41461,2.472534 0.79546,2.472534 0.40234,0 0.8744,-0.142875 1.04902,-0.3175 z m 1.905,-1.005417 c 0,-2.11397 0.0533,-2.38125 0.4748,-2.38125 0.26157,0 0.94481,0.617683 1.52135,1.375376 l 1.04656,1.375373 0.08,-1.375373 c 0.0674,-1.159314 0.16093,-1.375376 0.59531,-1.375376 0.47256,0 0.51534,0.197686 0.51534,2.38125 0,2.905771 -0.24575,3.018277 -1.96984,0.901787 l -1.20516,-1.479462 v 1.479462 c 0,1.303073 -0.0631,1.479463 -0.52916,1.479463 -0.48997,0 -0.52917,-0.17639 -0.52917,-2.38125 z m 4.93889,2.20486 c -0.097,-0.09701 -0.17639,-1.168574 -0.17639,-2.38125 v -2.20486 h 1.5875 c 1.23473,0 1.5875,0.08819 1.5875,0.396875 0,0.286631 -0.29398,0.396875 -1.05833,0.396875 -0.8704,0 -1.05833,0.09099 -1.05833,0.512403 0,0.381735 0.21408,0.533545 0.83952,0.595312 1.21294,0.119788 1.30404,0.744369 0.10857,0.744369 -0.76187,0 -0.94809,0.1008 -0.94809,0.513193 0,0.401804 0.21488,0.531022 0.98998,0.595313 0.69187,0.05739 1.01641,0.221549 1.07774,0.545139 0.0748,0.3947 -0.12334,0.463021 -1.34277,0.463021 -0.78678,0 -1.50988,-0.07937 -1.6069,-0.17639 z m 4.8507,-0.745677 c 0,-0.561462 -0.31043,-1.426568 -0.79375,-2.212076 -0.93759,-1.523775 -0.95499,-1.628357 -0.27091,-1.628357 0.33389,0 0.7003,0.345901 1.01387,0.957107 l 0.49103,0.957106 0.5647,-0.957106 c 0.36479,-0.618271 0.76208,-0.957107 1.12222,-0.957107 0.53522,0 0.52501,0.0568 -0.25566,1.42127 -0.49728,0.869146 -0.81317,1.794196 -0.81317,2.38125 0,0.78359 -0.0972,0.95998 -0.52917,0.95998 -0.42794,0 -0.52916,-0.17639 -0.52916,-0.922067 z"
               id="path4496"
               inkscape:connector-curvature="0"
               sodipodi:nodetypes="ccsccssccccsscsssssccccccscsscccsscssssscccccsccccssscccccscssssscscccssscccssccscccscccccscsccscccssccsscccscsssssssccscscscccscsss"
               clip-path="none" />
            <path
               clip-path="none"
               sodipodi:nodetypes="ccsccssccccsscsssssccccccscsscccsscssssscccccsccccssscccccscssssscscccssscccssccscccscccccscsccscccssccsscccscsssssssccscscscccscsss"
               inkscape:connector-curvature="0"
               id="path4577"
               d="m 117.15211,76.08023 v -2.38125 h 1.40229 c 0.77126,0 1.54517,0.142875 1.71979,0.3175 0.38611,0.386107 0.41829,1.441064 0.0509,1.668129 -0.16528,0.102153 -0.115,0.316381 0.1323,0.563682 1.01538,1.015386 -0.0575,2.213189 -1.98235,2.213189 h -1.32292 z m 2.53182,1.028753 c 0.21077,-0.341019 -0.33855,-0.75424 -1.01047,-0.760119 -0.28798,-0.0025 -0.46302,0.195993 -0.46302,0.525116 0,0.384643 0.17639,0.529167 0.64585,0.529167 0.35521,0 0.72765,-0.132374 0.82764,-0.294164 z m -0.15057,-2.087086 c 0,-0.388057 -0.17639,-0.529167 -0.66146,-0.529167 -0.48507,0 -0.66146,0.14111 -0.66146,0.529167 0,0.388056 0.17639,0.529167 0.66146,0.529167 0.48507,0 0.66146,-0.141111 0.66146,-0.529167 z m 1.85208,1.058333 v -2.38125 l 1.25677,0.004 c 0.69123,0.0021 1.39333,0.09153 1.56024,0.198438 0.46959,0.300805 0.52836,1.233646 0.12517,1.987063 -0.3276,0.612193 -0.30722,0.755862 0.19844,1.398709 0.70166,0.892008 0.71051,1.174239 0.0368,1.174239 -0.31098,0 -0.77158,-0.377978 -1.12448,-0.922766 -0.75628,-1.167511 -0.99462,-1.168296 -0.99462,-0.0033 0,0.749652 -0.10079,0.926042 -0.52916,0.926042 -0.48997,0 -0.52917,-0.17639 -0.52917,-2.38125 z m 2.06893,-0.994891 c 0.0642,-0.450094 -0.0471,-0.592609 -0.46302,-0.592609 -0.41185,0 -0.54757,0.168762 -0.54757,0.680858 0,0.868452 0.88512,0.79116 1.01059,-0.08825 z m 2.16441,0.994891 c 0,-2.20486 0.0392,-2.38125 0.52916,-2.38125 0.48997,0 0.52917,0.17639 0.52917,2.38125 0,2.20486 -0.0392,2.38125 -0.52917,2.38125 -0.48997,0 -0.52916,-0.17639 -0.52916,-2.38125 z m 2.84067,2.198174 c -0.25664,-0.06693 -0.64359,-0.463925 -0.85989,-0.88221 -0.97518,-1.885792 -0.0344,-3.717248 1.92325,-3.744156 1.15435,-0.01587 2.0357,0.43426 1.7513,0.894432 -0.0893,0.144436 -0.56639,0.182067 -1.08198,0.08534 -1.55977,-0.292613 -2.4896,1.107752 -1.57032,2.364949 0.2782,0.380463 0.56971,0.454014 1.31807,0.332573 1.11161,-0.18039 1.56047,0.239903 0.82812,0.775409 -0.4774,0.349086 -1.37655,0.416724 -2.30855,0.173662 z m 3.24474,-2.198174 c 0,-2.20486 0.0392,-2.38125 0.52917,-2.38125 0.42837,0 0.52917,0.17639 0.52917,0.926042 0,1.170654 0.29404,1.171141 1.09037,0.0019 0.40434,-0.593725 0.8423,-0.92488 1.22473,-0.926042 0.76677,-0.0024 0.75433,0.06325 -0.22319,1.176589 l -0.81851,0.932222 0.97334,1.325941 c 0.96782,1.318445 0.96966,1.325941 0.32532,1.325941 -0.45739,0 -0.86376,-0.31133 -1.38144,-1.058333 -0.40338,-0.582084 -0.83629,-1.058334 -0.96202,-1.058334 -0.12573,0 -0.2286,0.47625 -0.2286,1.058334 0,0.881943 -0.0882,1.058333 -0.52917,1.058333 -0.48997,0 -0.52917,-0.17639 -0.52917,-2.38125 z m 5.82084,0 c 0,-2.153031 0.0476,-2.38125 0.49673,-2.38125 0.33312,0 0.7467,0.477433 1.25565,1.449523 l 0.75892,1.449525 0.73297,-1.449525 c 0.51725,-1.022935 0.88744,-1.449523 1.25788,-1.449523 0.48463,0 0.52493,0.182804 0.52493,2.38125 0,1.903857 -0.0769,2.38125 -0.38367,2.38125 -0.28127,0 -0.40485,-0.404402 -0.46302,-1.515221 l -0.0793,-1.515224 -0.66101,1.250641 c -0.36355,0.68785 -0.79001,1.250637 -0.94769,1.250637 -0.15768,0 -0.60148,-0.565546 -0.98621,-1.25677 l -0.69951,-1.256771 -0.006,1.521354 c -0.005,1.173065 -0.0973,1.521354 -0.40332,1.521354 -0.32337,0 -0.39687,-0.440973 -0.39687,-2.38125 z m 6.32964,1.607852 c -0.86731,-0.867317 -0.98287,-1.758209 -0.37942,-2.925157 0.65661,-1.269748 2.63936,-1.537843 3.73827,-0.505468 0.89439,0.840235 0.88462,2.650795 -0.0192,3.55459 -0.93843,0.938432 -2.32889,0.88682 -3.33967,-0.123965 z m 2.61327,-0.602435 c 0.17463,-0.174625 0.3175,-0.686594 0.3175,-1.137708 0,-1.395561 -1.14742,-1.935486 -2.16198,-1.017326 -0.9372,0.848159 -0.41461,2.472534 0.79546,2.472534 0.40234,0 0.8744,-0.142875 1.04902,-0.3175 z m 1.905,-1.005417 c 0,-2.11397 0.0533,-2.38125 0.4748,-2.38125 0.26157,0 0.94481,0.617683 1.52135,1.375376 l 1.04656,1.375373 0.08,-1.375373 c 0.0674,-1.159314 0.16093,-1.375376 0.59531,-1.375376 0.47256,0 0.51534,0.197686 0.51534,2.38125 0,2.905771 -0.24575,3.018277 -1.96984,0.901787 l -1.20516,-1.479462 v 1.479462 c 0,1.303073 -0.0631,1.479463 -0.52916,1.479463 -0.48997,0 -0.52917,-0.17639 -0.52917,-2.38125 z m 4.93889,2.20486 c -0.097,-0.09701 -0.17639,-1.168574 -0.17639,-2.38125 v -2.20486 h 1.5875 c 1.23473,0 1.5875,0.08819 1.5875,0.396875 0,0.286631 -0.29398,0.396875 -1.05833,0.396875 -0.8704,0 -1.05833,0.09099 -1.05833,0.512403 0,0.381735 0.21408,0.533545 0.83952,0.595312 1.21294,0.119788 1.30404,0.744369 0.10857,0.744369 -0.76187,0 -0.94809,0.1008 -0.94809,0.513193 0,0.401804 0.21488,0.531022 0.98998,0.595313 0.69187,0.05739 1.01641,0.221549 1.07774,0.545139 0.0748,0.3947 -0.12334,0.463021 -1.34277,0.463021 -0.78678,0 -1.50988,-0.07937 -1.6069,-0.17639 z m 4.8507,-0.745677 c 0,-0.561462 -0.31043,-1.426568 -0.79375,-2.212076 -0.93759,-1.523775 -0.95499,-1.628357 -0.27091,-1.628357 0.33389,0 0.7003,0.345901 1.01387,0.957107 l 0.49103,0.957106 0.5647,-0.957106 c 0.36479,-0.618271 0.76208,-0.957107 1.12222,-0.957107 0.53522,0 0.52501,0.0568 -0.25566,1.42127 -0.49728,0.869146 -0.81317,1.794196 -0.81317,2.38125 0,0.78359 -0.0972,0.95998 -0.52917,0.95998 -0.42794,0 -0.52916,-0.17639 -0.52916,-0.922067 z"
               style="fill:#262626;fill-opacity:1;stroke-width:0.26458332" />
          </g>
        </g>
      </g>
    </g>
    <path
       style="fill:#188c77;fill-opacity:1;stroke-width:0.26458332"
       d="m 59.051982,49.612445 c 0.14048,-0.513834 0.12301,-0.531942 -0.12761,-0.132291 -0.44232,0.705334 -0.646,0.579027 -1.45082,-0.899695 -0.88691,-1.629545 -1.18627,-4.330017 -0.6587,-5.942038 0.40058,-1.223995 2.17884,-3.611765 3.58315,-4.811295 1.47221,-1.257533 4.58679,-3.343487 4.74941,-3.180867 0.38405,0.384051 0.97494,4.357766 0.99598,6.697957 0.0305,3.396181 -0.47123,4.984901 -2.08359,6.597259 -1.14195,1.141955 -3.44069,2.266283 -4.63351,2.266283 -0.4288,0 -0.50426,-0.120015 -0.37431,-0.595313 z m -8.19689,-2.801604 c -2.41565,-0.798687 -4.76014,-3.147665 -5.76956,-5.780606 -0.61345,-1.600097 -0.85095,-4.226091 -0.4705,-5.202321 l 0.29376,-0.753802 2.31169,0.09649 c 2.80737,0.117177 4.67475,0.88647 6.66046,2.743871 2.02926,1.898136 2.88496,4.732321 2.10462,6.970796 -0.24213,0.694587 -0.39222,0.810549 -0.85782,0.662774 -0.48177,-0.152908 -0.51563,-0.12042 -0.2314,0.222054 0.27995,0.337315 0.21646,0.445619 -0.39895,0.680474 -0.98833,0.377179 -2.9918,0.57535 -3.6423,0.360272 z"
       id="path4496-3"
       inkscape:connector-curvature="0"
       sodipodi:nodetypes="ccssccccscccccsscccccc"
       inkscape:export-xdpi="96"
       inkscape:export-ydpi="96" />
  </g>
</svg>
