<?xml version="1.0" encoding="UTF-8" standalone="no"?>
<svg
   xmlns:dc="http://purl.org/dc/elements/1.1/"
   xmlns:cc="http://creativecommons.org/ns#"
   xmlns:rdf="http://www.w3.org/1999/02/22-rdf-syntax-ns#"
   xmlns:svg="http://www.w3.org/2000/svg"
   xmlns="http://www.w3.org/2000/svg"
   xmlns:sodipodi="http://sodipodi.sourceforge.net/DTD/sodipodi-0.dtd"
   xmlns:inkscape="http://www.inkscape.org/namespaces/inkscape"
   height="45mm"
   viewBox="0 0 94.999999 44.999999"
   width="95mm"
   version="1.1"
   id="svg5614"
   sodipodi:docname="add_legoSet.svg"
   inkscape:version="0.92.1 r15371">
  <metadata
     id="metadata5620">
    <rdf:RDF>
      <cc:Work
         rdf:about="">
        <dc:format>image/svg+xml</dc:format>
        <dc:type
           rdf:resource="http://purl.org/dc/dcmitype/StillImage" />
        <dc:title></dc:title>
      </cc:Work>
    </rdf:RDF>
  </metadata>
  <defs
     id="defs5618" />
  <sodipodi:namedview
     pagecolor="#ffffff"
     bordercolor="#666666"
     borderopacity="1"
     objecttolerance="10"
     gridtolerance="10"
     guidetolerance="10"
     inkscape:pageopacity="0"
     inkscape:pageshadow="2"
     inkscape:window-width="1920"
     inkscape:window-height="1017"
     id="namedview5616"
     showgrid="true"
     inkscape:zoom="0.67351921"
     inkscape:cx="235.71299"
     inkscape:cy="-62.584587"
     inkscape:window-x="-8"
     inkscape:window-y="-8"
     inkscape:window-maximized="1"
     inkscape:current-layer="svg5614"
     units="mm"
     scale-x="2"
     inkscape:document-units="mm">
    <inkscape:grid
       type="xygrid"
       id="grid5668" />
  </sodipodi:namedview>
  <g
     transform="matrix(0.75146682,0,0,0.75146682,564.91647,-369.66251)"
     id="g3762" />
  <g
     transform="matrix(0.75146682,0,0,0.75146682,564.91647,-369.66251)"
     id="g3764" />
  <g
     transform="matrix(0.75146682,0,0,0.75146682,564.91647,-369.66251)"
     id="g3766" />
  <g
     transform="matrix(0.75146682,0,0,0.75146682,564.91647,-369.66251)"
     id="g3768" />
  <g
     transform="matrix(0.75146682,0,0,0.75146682,564.91647,-369.66251)"
     id="g3770" />
  <g
     transform="matrix(0.75146682,0,0,0.75146682,564.91647,-369.66251)"
     id="g3772" />
  <g
     transform="matrix(0.75146682,0,0,0.75146682,564.91647,-369.66251)"
     id="g3774" />
  <g
     transform="matrix(0.75146682,0,0,0.75146682,564.91647,-369.66251)"
     id="g3776" />
  <g
     transform="matrix(0.75146682,0,0,0.75146682,564.91647,-369.66251)"
     id="g3778" />
  <g
     transform="matrix(0.75146682,0,0,0.75146682,564.91647,-369.66251)"
     id="g3780" />
  <g
     transform="matrix(0.75146682,0,0,0.75146682,564.91647,-369.66251)"
     id="g3782" />
  <g
     transform="matrix(0.75146682,0,0,0.75146682,564.91647,-369.66251)"
     id="g3784" />
  <g
     transform="matrix(0.75146682,0,0,0.75146682,564.91647,-369.66251)"
     id="g3786" />
  <g
     transform="matrix(0.75146682,0,0,0.75146682,564.91647,-369.66251)"
     id="g3788" />
  <g
     transform="matrix(0.75146682,0,0,0.75146682,564.91647,-369.66251)"
     id="g3790" />
  <g
     id="g5036"
     transform="matrix(0.75146682,0,0,0.75146682,58.871731,-379.57165)" />
  <g
     id="g5038"
     transform="matrix(0.75146682,0,0,0.75146682,58.871731,-379.57165)" />
  <g
     id="g5040"
     transform="matrix(0.75146682,0,0,0.75146682,58.871731,-379.57165)" />
  <g
     id="g5042"
     transform="matrix(0.75146682,0,0,0.75146682,58.871731,-379.57165)" />
  <g
     id="g5044"
     transform="matrix(0.75146682,0,0,0.75146682,58.871731,-379.57165)" />
  <g
     id="g5046"
     transform="matrix(0.75146682,0,0,0.75146682,58.871731,-379.57165)" />
  <g
     id="g5048"
     transform="matrix(0.75146682,0,0,0.75146682,58.871731,-379.57165)" />
  <g
     id="g5050"
     transform="matrix(0.75146682,0,0,0.75146682,58.871731,-379.57165)" />
  <g
     id="g5052"
     transform="matrix(0.75146682,0,0,0.75146682,58.871731,-379.57165)" />
  <g
     id="g5054"
     transform="matrix(0.75146682,0,0,0.75146682,58.871731,-379.57165)" />
  <g
     id="g5056"
     transform="matrix(0.75146682,0,0,0.75146682,58.871731,-379.57165)" />
  <g
     id="g5058"
     transform="matrix(0.75146682,0,0,0.75146682,58.871731,-379.57165)" />
  <g
     id="g5060"
     transform="matrix(0.75146682,0,0,0.75146682,58.871731,-379.57165)" />
  <g
     id="g5062"
     transform="matrix(0.75146682,0,0,0.75146682,58.871731,-379.57165)" />
  <g
     id="g5064"
     transform="matrix(0.75146682,0,0,0.75146682,58.871731,-379.57165)" />
  <g
     id="g5173"
     transform="matrix(0.34100419,0,0,0.35480433,38.25615,-17.421027)"
     style="stroke-width:0.97412676">
    <rect
       y="83.015343"
       x="51.419048"
       height="89.034233"
       width="96.681198"
       id="rect4994"
       style="opacity:1;fill:#ffffff;fill-opacity:0.98416904;fill-rule:nonzero;stroke:#000000;stroke-width:7.75790453;stroke-miterlimit:4;stroke-dasharray:none;stroke-opacity:1" />
    <path
       transform="matrix(0.52961241,0,0,0.15460176,-35.706643,51.595603)"
       inkscape:transform-center-y="-17.350315"
       inkscape:transform-center-x="0.14258511"
       d="M 360.1203,187.33176 153.97313,187.08501 257.26042,8.6796965 Z"
       inkscape:randomized="0"
       inkscape:rounded="0"
       inkscape:flatsided="true"
       sodipodi:arg2="1.5719933"
       sodipodi:arg1="0.52479577"
       sodipodi:r2="59.509605"
       sodipodi:r1="119.01921"
       sodipodi:cy="127.69882"
       sodipodi:cx="257.11795"
       sodipodi:sides="3"
       id="path5028"
       style="opacity:1;fill:#ffffff;fill-opacity:0.98416904;fill-rule:nonzero;stroke:#000000;stroke-width:24.83572578;stroke-miterlimit:4;stroke-dasharray:none;stroke-opacity:1"
       sodipodi:type="star" />
    <rect
       ry="11.844322"
       y="105.85416"
       x="70.333603"
       height="43.64579"
       width="57.989315"
       id="rect5474-0-1"
       style="opacity:1;fill:#ffffff;fill-opacity:0.98416904;fill-rule:nonzero;stroke:#000000;stroke-width:5.15475368;stroke-linejoin:round;stroke-miterlimit:1.79999995;stroke-dasharray:none;stroke-dashoffset:0;stroke-opacity:1" />
    <rect
       ry="2.2685668"
       y="93.947914"
       x="90.016121"
       height="11.108248"
       width="21.108875"
       id="rect5497-5-4-6"
       style="opacity:1;fill:none;fill-opacity:0.98416904;fill-rule:nonzero;stroke:#000000;stroke-width:5.15475368;stroke-linejoin:round;stroke-miterlimit:1.79999995;stroke-dasharray:none;stroke-dashoffset:0;stroke-opacity:1" />
    <rect
       rx="0"
       ry="0"
       y="150.01714"
       x="84.524429"
       height="6.637042"
       width="31.892235"
       id="rect5514-9-1-7"
       style="opacity:1;fill:none;fill-opacity:0.98416904;fill-rule:nonzero;stroke:#000000;stroke-width:5.15475368;stroke-linejoin:round;stroke-miterlimit:1.79999995;stroke-dasharray:none;stroke-dashoffset:0;stroke-opacity:1" />
    <ellipse
       ry="4.8291068"
       rx="6.2188659"
       cy="120.65646"
       cx="109.95782"
       id="path5531-5-4-2"
       style="opacity:1;fill:#000000;fill-opacity:1;fill-rule:nonzero;stroke:#000000;stroke-width:1.04309154;stroke-linejoin:round;stroke-miterlimit:1.79999995;stroke-dasharray:none;stroke-dashoffset:0;stroke-opacity:1" />
    <ellipse
       ry="4.8291068"
       rx="6.2188659"
       cy="120.65646"
       cx="90.355011"
       id="path5531-5-7-0-7"
       style="opacity:1;fill:#000000;fill-opacity:1;fill-rule:nonzero;stroke:#000000;stroke-width:1.04309154;stroke-linejoin:round;stroke-miterlimit:1.79999995;stroke-dasharray:none;stroke-dashoffset:0;stroke-opacity:1" />
    <path
       style="fill:#000000;fill-opacity:1;stroke:#000000;stroke-width:3.09285259;stroke-miterlimit:4;stroke-dasharray:none;stroke-opacity:1"
       inkscape:connector-curvature="0"
       id="path3756-6-6-7"
       d="m 100.87515,137.37278 c -4.003752,0.01 -7.845317,-1.4366 -10.668448,-4.01631 -0.578723,-0.5445 -0.56216,-1.41232 0.03704,-1.93831 0.58465,-0.51301 1.511432,-0.51301 2.09595,0 4.778057,4.13749 12.289468,4.13749 17.067688,0 0.59923,-0.52586 1.55427,-0.51083 2.13312,0.0337 0.56457,0.53125 0.56457,1.37338 0,1.90451 -2.82228,2.57919 -6.66271,4.02531 -10.66535,4.01644 z" />
  </g>
  <path
     style="fill:#000000;stroke-width:1"
     d="M 18.758639,35.633152 18.733681,26.266304 9.3668389,26.241358 0,26.216408 V 22.5 18.783592 l 9.3668389,-0.02495 9.3668421,-0.02495 0.02496,-9.3668478 L 18.783601,2.15788e-7 h 3.716406 3.716402 L 26.241369,9.3668482 l 0.02496,9.3668478 9.366839,0.02495 L 45,18.783592 V 22.5 26.216408 l -9.366842,0.02495 -9.366839,0.02495 -0.02496,9.366848 L 26.216404,45 h -3.716402 -3.716406 z"
     id="path3736"
     inkscape:connector-curvature="0" />
</svg>
