<?xml version="1.0" encoding="UTF-8" standalone="no"?>
<!-- Created with Inkscape (http://www.inkscape.org/) -->

<svg
   xmlns:dc="http://purl.org/dc/elements/1.1/"
   xmlns:cc="http://creativecommons.org/ns#"
   xmlns:rdf="http://www.w3.org/1999/02/22-rdf-syntax-ns#"
   xmlns:svg="http://www.w3.org/2000/svg"
   xmlns="http://www.w3.org/2000/svg"
   xmlns:sodipodi="http://sodipodi.sourceforge.net/DTD/sodipodi-0.dtd"
   xmlns:inkscape="http://www.inkscape.org/namespaces/inkscape"
   width="45mm"
   height="45mm"
   viewBox="0 0 45 45"
   version="1.1"
   id="svg8"
   inkscape:version="0.92.1 r15371"
   sodipodi:docname="AllSelected.svg">
  <defs
     id="defs2" />
  <sodipodi:namedview
     id="base"
     pagecolor="#ffffff"
     bordercolor="#666666"
     borderopacity="1.0"
     inkscape:pageopacity="0.0"
     inkscape:pageshadow="2"
     inkscape:zoom="0.98994949"
     inkscape:cx="304.32564"
     inkscape:cy="169.28347"
     inkscape:document-units="mm"
     inkscape:current-layer="layer1"
     showgrid="false"
     inkscape:window-width="1920"
     inkscape:window-height="1017"
     inkscape:window-x="-8"
     inkscape:window-y="-8"
     inkscape:window-maximized="1" />
  <metadata
     id="metadata5">
    <rdf:RDF>
      <cc:Work
         rdf:about="">
        <dc:format>image/svg+xml</dc:format>
        <dc:type
           rdf:resource="http://purl.org/dc/dcmitype/StillImage" />
        <dc:title></dc:title>
      </cc:Work>
    </rdf:RDF>
  </metadata>
  <g
     inkscape:label="Layer 1"
     inkscape:groupmode="layer"
     id="layer1"
     transform="translate(0,-252)">
    <path
       style="fill:#000000;stroke-width:0.26685616"
       d="M 2.3743366,296.53259 C 1.1277148,295.90528 0.30620444,294.59623 0.10356554,292.91415 0.01155315,292.15041 -0.02632008,284.73542 0.01941401,276.43638 0.09429375,262.84015 0.14735457,261.26527 0.55553484,260.51893 1.2801551,259.194 2.2669552,258.69276 4.4455325,258.54305 l 1.9431647,-0.13353 0.075988,-2.16221 c 0.085663,-2.43633 0.6988608,-3.68433 1.9882839,-4.04641 0.3935672,-0.11051 8.2803799,-0.20093 17.5262349,-0.20093 15.833649,0 16.853878,0.0284 17.554372,0.48813 1.534863,1.00741 1.517317,0.77233 1.438225,19.27492 l -0.07246,16.9483 -0.871639,0.87298 c -0.826015,0.82729 -0.990005,0.87791 -3.133107,0.96716 l -2.261469,0.0942 v 1.49067 c 0,2.11049 -0.774567,3.60658 -2.233402,4.31389 -1.107122,0.53679 -1.523858,0.55017 -17.116089,0.54977 -14.6828397,-2.6e-4 -16.0567469,-0.0384 -16.9092977,-0.46736 z m 33.0590144,-2.737 c 0.521225,-0.52204 0.533299,-0.89021 0.533299,-16.27187 0,-13.95095 -0.04757,-15.78539 -0.419024,-16.15742 -0.371507,-0.37209 -2.213407,-0.41967 -16.246466,-0.41967 -14.033069,0 -15.8749595,0.0475 -16.2464759,0.41967 -0.3714055,0.372 -0.4190142,2.20106 -0.4190142,16.09799 0,13.75787 0.050894,15.75103 0.4150938,16.27188 l 0.4150938,0.59355 H 19.182955 c 15.361574,0 15.72916,-0.0121 16.250396,-0.53413 z m -24.450988,-8.89388 c -2.5146393,-2.51858 -2.747089,-2.83668 -2.747089,-3.75945 0,-1.38812 1.1624904,-2.56936 2.528608,-2.56936 0.802422,0 1.221658,0.23863 2.429822,1.38305 1.2503,1.18434 1.511472,1.32823 1.817663,1.0015 0.196673,-0.20986 2.605614,-2.96542 5.353206,-6.12346 6.261509,-7.19686 6.276062,-7.21074 7.567904,-7.21074 2.282794,0 3.246646,2.44467 1.702965,4.31931 -2.332116,2.83211 -13.490307,15.20564 -13.919691,15.43579 -1.285634,0.68913 -1.886416,0.37478 -4.733388,-2.47664 z M 42.232865,271.22862 V 254.67061 H 25.700708 9.1685396 l -0.07881,1.80269 -0.07881,1.80269 H 22.134819 c 14.633941,0 14.383532,-0.0296 15.628249,1.84218 l 0.603483,0.90745 v 13.26923 c 0,7.29807 0.08486,13.35427 0.188681,13.45821 0.103783,0.10394 0.973719,0.15402 1.933197,0.11128 l 1.744507,-0.0777 z"
       id="path4522"
       inkscape:connector-curvature="0" />
  </g>
</svg>
