<?xml version="1.0" encoding="UTF-8" standalone="no"?>
<!-- Created with Inkscape (http://www.inkscape.org/) -->

<svg
   xmlns:dc="http://purl.org/dc/elements/1.1/"
   xmlns:cc="http://creativecommons.org/ns#"
   xmlns:rdf="http://www.w3.org/1999/02/22-rdf-syntax-ns#"
   xmlns:svg="http://www.w3.org/2000/svg"
   xmlns="http://www.w3.org/2000/svg"
   xmlns:sodipodi="http://sodipodi.sourceforge.net/DTD/sodipodi-0.dtd"
   xmlns:inkscape="http://www.inkscape.org/namespaces/inkscape"
   width="45mm"
   height="45mm"
   viewBox="0 0 45 45"
   version="1.1"
   id="svg8"
   inkscape:version="0.92.1 r15371"
   sodipodi:docname="CopyAndPaste.svg">
  <defs
     id="defs2" />
  <sodipodi:namedview
     id="base"
     pagecolor="#ffffff"
     bordercolor="#666666"
     borderopacity="1.0"
     inkscape:pageopacity="0.0"
     inkscape:pageshadow="2"
     inkscape:zoom="0.98994949"
     inkscape:cx="304.32564"
     inkscape:cy="169.28347"
     inkscape:document-units="mm"
     inkscape:current-layer="layer1"
     showgrid="false"
     inkscape:window-width="1920"
     inkscape:window-height="1017"
     inkscape:window-x="-8"
     inkscape:window-y="-8"
     inkscape:window-maximized="1" />
  <metadata
     id="metadata5">
    <rdf:RDF>
      <cc:Work
         rdf:about="">
        <dc:format>image/svg+xml</dc:format>
        <dc:type
           rdf:resource="http://purl.org/dc/dcmitype/StillImage" />
        <dc:title></dc:title>
      </cc:Work>
    </rdf:RDF>
  </metadata>
  <g
     inkscape:label="Layer 1"
     inkscape:groupmode="layer"
     id="layer1"
     transform="translate(0,-252)">
    <path
       style="fill:#000000;stroke-width:0.30231693"
       d="m 12.033657,296.47564 c -1.644502,-0.78848 -2.2497211,-1.94693 -2.4216357,-4.63529 L 9.4620244,289.49461 H 6.8485921 c -2.0322312,0 -2.9517206,-0.13414 -4.1345838,-0.60319 -2.83080558,-1.12251 -2.71331813614,-0.33607 -2.71331813614,-18.16268 0,-17.30784 -0.0606893939,-16.79837 2.15429283614,-18.07661 0.9317432,-0.53769 1.4107126,-0.55747 15.170995,-0.62642 13.018876,-0.0652 14.306779,-0.0315 15.377876,0.40214 2.065205,0.83619 2.566298,1.66865 2.697908,4.48198 l 0.11674,2.49617 2.951527,0.11678 c 3.38545,0.13393 4.863333,0.61362 5.863162,1.90306 0.640447,0.82595 0.665534,1.46252 0.666759,16.91165 0.0013,15.62824 -0.01688,16.07654 -0.685932,16.92776 -1.355925,1.7252 -1.460579,1.73581 -17.092232,1.73471 -13.379985,-10e-4 -14.152196,-0.0277 -15.188155,-0.52432 z m 29.802224,-1.96394 c 0.56798,-0.44677 0.614496,-1.52108 0.699074,-16.14781 0.08904,-15.40118 0.07886,-15.67845 -0.596611,-16.2096 -0.666398,-0.52402 -1.105745,-0.5404 -14.494546,-0.5404 -13.352758,0 -13.829756,0.0176 -14.489157,0.53616 -0.666256,0.52393 -0.681847,0.89362 -0.681847,16.17753 0,14.56212 0.04123,15.66956 0.596611,16.05005 0.328148,0.22478 0.826742,0.4773 1.108,0.56116 0.281259,0.0839 6.527576,0.12975 13.880692,0.102 12.32872,-0.0465 13.416671,-0.0878 13.977784,-0.52909 z m -23.45021,-11.07145 c -0.325197,-0.30812 -0.349847,-0.54712 -0.08981,-0.87127 0.31418,-0.39166 1.167968,-0.44668 6.931965,-0.44668 5.763995,0 6.617782,0.055 6.931963,0.44668 0.260023,0.32415 0.235374,0.56315 -0.08981,0.87127 -0.669491,0.63435 -13.014792,0.63435 -13.684282,0 z m 0,-6.16593 c -0.325197,-0.30812 -0.349847,-0.54712 -0.08981,-0.87127 0.319605,-0.39843 1.329523,-0.44668 9.350905,-0.44668 8.384851,0 9.000571,0.0326 9.110637,0.48204 0.292353,1.19369 -0.20137,1.26051 -9.313592,1.26051 -7.43995,0 -8.6709,-0.0577 -9.058127,-0.4246 z m 0.22535,-5.82429 c -0.43909,-0.25248 -0.555856,-0.53409 -0.390899,-0.94278 0.233673,-0.57895 0.294169,-0.58276 9.257345,-0.58276 8.038355,0 9.045489,0.0478 9.236165,0.43857 0.117771,0.24121 0.05798,0.63328 -0.132873,0.87126 -0.301488,0.37609 -1.458916,0.44207 -8.845252,0.50422 -6.687286,0.0562 -8.631794,-0.005 -9.124486,-0.28851 z m -8.9960748,3.31928 c 0.098057,-12.22422 0.1208634,-12.6016 0.8038448,-13.32061 0.386608,-0.40699 1.126245,-0.9887 1.643638,-1.2927 0.892109,-0.52417 1.459329,-0.55698 10.97366,-0.63465 l 10.03292,-0.0819 v -1.84908 c 0,-2.13013 -0.415201,-3.03314 -1.587782,-3.45326 -1.132585,-0.40578 -26.1782944,-0.41824 -27.4315496,-0.0137 -0.4913264,0.15862 -1.0666257,0.58751 -1.2784587,0.9531 -0.271672,0.46888 -0.3851392,5.11259 -0.3851392,15.76267 0,17.98571 -0.3815185,16.5107 4.2705486,16.5107 h 2.8573753 z"
       id="path4548"
       inkscape:connector-curvature="0" />
  </g>
</svg>
