<?xml version="1.0" encoding="UTF-8" standalone="no"?>
<svg
   xmlns:dc="http://purl.org/dc/elements/1.1/"
   xmlns:cc="http://creativecommons.org/ns#"
   xmlns:rdf="http://www.w3.org/1999/02/22-rdf-syntax-ns#"
   xmlns:svg="http://www.w3.org/2000/svg"
   xmlns="http://www.w3.org/2000/svg"
   xmlns:sodipodi="http://sodipodi.sourceforge.net/DTD/sodipodi-0.dtd"
   xmlns:inkscape="http://www.inkscape.org/namespaces/inkscape"
   height="511pt"
   viewBox="-32 0 511 511.99938"
   width="511pt"
   version="1.1"
   id="svg5614"
   sodipodi:docname="forSale.svg"
   inkscape:version="0.92.1 r15371">
  <metadata
     id="metadata5620">
    <rdf:RDF>
      <cc:Work
         rdf:about="">
        <dc:format>image/svg+xml</dc:format>
        <dc:type
           rdf:resource="http://purl.org/dc/dcmitype/StillImage" />
        <dc:title></dc:title>
      </cc:Work>
    </rdf:RDF>
  </metadata>
  <defs
     id="defs5618" />
  <sodipodi:namedview
     pagecolor="#ffffff"
     bordercolor="#666666"
     borderopacity="1"
     objecttolerance="10"
     gridtolerance="10"
     guidetolerance="10"
     inkscape:pageopacity="0"
     inkscape:pageshadow="2"
     inkscape:window-width="1920"
     inkscape:window-height="1017"
     id="namedview5616"
     showgrid="true"
     inkscape:zoom="0.6927593"
     inkscape:cx="180.32166"
     inkscape:cy="263.13265"
     inkscape:window-x="-8"
     inkscape:window-y="-8"
     inkscape:window-maximized="1"
     inkscape:current-layer="svg5614">
    <inkscape:grid
       type="xygrid"
       id="grid5668" />
  </sodipodi:namedview>
  <path
     d="m445.316406 248.242188c-2.714844-4.496094-7.585937-7.242188-12.835937-7.242188-44.296875 0-84.851563 22.769531-107.945313 60h-177.898437c-20.03125 0-38.867188 7.800781-53.03125 21.96875l-88.714844 88.710938c-5.851563 5.855468-5.855469 15.355468 0 21.214843 36.429687 36.425781 74.660156 74.375 75.042969 74.75 5.855468 5.816407 15.304687 5.800781 21.148437-.011719l56.894531-56.632812h125.660157c39.191406 0 74.832031-21.558594 93-56.261719.457031-.871093 45.890625-87.574219 69.117187-131.757812 2.445313-4.652344 2.28125-10.238281-.4375-14.738281zm-95.253906 132.578124c-12.976562 24.785157-38.429688 40.179688-66.425781 40.179688h-131.851563c-3.96875 0-7.773437 1.570312-10.582031 4.367188l-50.714844 50.480468c-11.949219-11.875-32.511719-32.332031-53.773437-53.566406l78.101562-78.101562c8.5-8.5 19.800782-13.179688 31.820313-13.179688h161.796875l-11.511719 21.964844c-2.597656 4.957031-7.6875 8.035156-13.285156 8.035156h-101.851563c-8.285156 0-15 6.714844-15 15s6.714844 15 15 15h101.851563c16.789062 0 32.0625-9.238281 39.859375-24.109375.011718-.027344 23.152344-44.179687 23.152344-44.179687 12.5625-23.765626 34-40.820313 59.042968-47.972657-23.933594 45.59375-55.246094 105.355469-55.628906 106.082031zm0 0"
     id="path5610"
     style="stroke:#000000;stroke-opacity:1;stroke-width:0.75146682;stroke-miterlimit:4;stroke-dasharray:none" />
  <g
     transform="matrix(0.75146682,0,0,0.75146682,564.91647,14.528353)"
     id="g3762" />
  <g
     transform="matrix(0.75146682,0,0,0.75146682,564.91647,14.528353)"
     id="g3764" />
  <g
     transform="matrix(0.75146682,0,0,0.75146682,564.91647,14.528353)"
     id="g3766" />
  <g
     transform="matrix(0.75146682,0,0,0.75146682,564.91647,14.528353)"
     id="g3768" />
  <g
     transform="matrix(0.75146682,0,0,0.75146682,564.91647,14.528353)"
     id="g3770" />
  <g
     transform="matrix(0.75146682,0,0,0.75146682,564.91647,14.528353)"
     id="g3772" />
  <g
     transform="matrix(0.75146682,0,0,0.75146682,564.91647,14.528353)"
     id="g3774" />
  <g
     transform="matrix(0.75146682,0,0,0.75146682,564.91647,14.528353)"
     id="g3776" />
  <g
     transform="matrix(0.75146682,0,0,0.75146682,564.91647,14.528353)"
     id="g3778" />
  <g
     transform="matrix(0.75146682,0,0,0.75146682,564.91647,14.528353)"
     id="g3780" />
  <g
     transform="matrix(0.75146682,0,0,0.75146682,564.91647,14.528353)"
     id="g3782" />
  <g
     transform="matrix(0.75146682,0,0,0.75146682,564.91647,14.528353)"
     id="g3784" />
  <g
     transform="matrix(0.75146682,0,0,0.75146682,564.91647,14.528353)"
     id="g3786" />
  <g
     transform="matrix(0.75146682,0,0,0.75146682,564.91647,14.528353)"
     id="g3788" />
  <g
     transform="matrix(0.75146682,0,0,0.75146682,564.91647,14.528353)"
     id="g3790" />
  <g
     id="g5036"
     transform="matrix(0.75146682,0,0,0.75146682,58.871731,4.6192128)" />
  <g
     id="g5038"
     transform="matrix(0.75146682,0,0,0.75146682,58.871731,4.6192128)" />
  <g
     id="g5040"
     transform="matrix(0.75146682,0,0,0.75146682,58.871731,4.6192128)" />
  <g
     id="g5042"
     transform="matrix(0.75146682,0,0,0.75146682,58.871731,4.6192128)" />
  <g
     id="g5044"
     transform="matrix(0.75146682,0,0,0.75146682,58.871731,4.6192128)" />
  <g
     id="g5046"
     transform="matrix(0.75146682,0,0,0.75146682,58.871731,4.6192128)" />
  <g
     id="g5048"
     transform="matrix(0.75146682,0,0,0.75146682,58.871731,4.6192128)" />
  <g
     id="g5050"
     transform="matrix(0.75146682,0,0,0.75146682,58.871731,4.6192128)" />
  <g
     id="g5052"
     transform="matrix(0.75146682,0,0,0.75146682,58.871731,4.6192128)" />
  <g
     id="g5054"
     transform="matrix(0.75146682,0,0,0.75146682,58.871731,4.6192128)" />
  <g
     id="g5056"
     transform="matrix(0.75146682,0,0,0.75146682,58.871731,4.6192128)" />
  <g
     id="g5058"
     transform="matrix(0.75146682,0,0,0.75146682,58.871731,4.6192128)" />
  <g
     id="g5060"
     transform="matrix(0.75146682,0,0,0.75146682,58.871731,4.6192128)" />
  <g
     id="g5062"
     transform="matrix(0.75146682,0,0,0.75146682,58.871731,4.6192128)" />
  <g
     id="g5064"
     transform="matrix(0.75146682,0,0,0.75146682,58.871731,4.6192128)" />
  <rect
     style="opacity:1;fill:#ffffff;fill-opacity:0.98416904;fill-rule:nonzero;stroke:#000000;stroke-width:24.04693833;stroke-linejoin:round;stroke-miterlimit:1.79999995;stroke-dasharray:none;stroke-dashoffset:0;stroke-opacity:1"
     id="rect5474-0"
     width="223.39874"
     height="169.28014"
     x="107.81153"
     y="70.136917"
     ry="45.93819" />
  <rect
     style="opacity:1;fill:none;fill-opacity:0.98416904;fill-rule:nonzero;stroke:#000000;stroke-width:24.04693833;stroke-linejoin:round;stroke-miterlimit:1.79999995;stroke-dasharray:none;stroke-dashoffset:0;stroke-opacity:1"
     id="rect5497-5-4"
     width="81.320091"
     height="43.083324"
     x="183.6367"
     y="23.958546"
     ry="8.7986336" />
  <rect
     style="opacity:1;fill:none;fill-opacity:0.98416904;fill-rule:nonzero;stroke:#000000;stroke-width:24.04693833;stroke-linejoin:round;stroke-miterlimit:1.79999995;stroke-dasharray:none;stroke-dashoffset:0;stroke-opacity:1"
     id="rect5514-9-1"
     width="122.86204"
     height="25.741756"
     x="162.48041"
     y="241.42291"
     ry="0"
     rx="0" />
  <ellipse
     style="opacity:1;fill:#000000;fill-opacity:1;fill-rule:nonzero;stroke:#000000;stroke-width:4.13909245;stroke-linejoin:round;stroke-miterlimit:1.79999995;stroke-dasharray:none;stroke-dashoffset:0;stroke-opacity:1"
     id="path5531-5-4"
     cx="260.46042"
     cy="127.54762"
     rx="23.957636"
     ry="18.729683" />
  <ellipse
     style="opacity:1;fill:#000000;fill-opacity:1;fill-rule:nonzero;stroke:#000000;stroke-width:4.13909245;stroke-linejoin:round;stroke-miterlimit:1.79999995;stroke-dasharray:none;stroke-dashoffset:0;stroke-opacity:1"
     id="path5531-5-7-0"
     cx="184.94226"
     cy="127.54762"
     rx="23.957636"
     ry="18.729683" />
  <path
     d="m 225.47015,192.38182 c -15.42411,0.0373 -30.22341,-5.57187 -41.09926,-15.57727 -2.22949,-2.11183 -2.16568,-5.47769 0.14269,-7.51774 2.25232,-1.98969 5.82267,-1.98969 8.07447,0 18.40705,16.04728 47.34412,16.04728 65.75177,0 2.30848,-2.03954 5.98769,-1.98123 8.21768,0.13055 2.17494,2.06047 2.17494,5.32666 0,7.38667 -10.87262,10.00337 -25.66751,15.61214 -41.08735,15.57776 z"
     id="path3756-6-6"
     inkscape:connector-curvature="0"
     style="fill:#000000;fill-opacity:1;stroke:#000000;stroke-width:12.27275085;stroke-miterlimit:4;stroke-dasharray:none;stroke-opacity:1" />
</svg>
