<?xml version="1.0" encoding="UTF-8" standalone="no"?>
<!-- Created with Inkscape (http://www.inkscape.org/) -->

<svg
   xmlns:dc="http://purl.org/dc/elements/1.1/"
   xmlns:cc="http://creativecommons.org/ns#"
   xmlns:rdf="http://www.w3.org/1999/02/22-rdf-syntax-ns#"
   xmlns:svg="http://www.w3.org/2000/svg"
   xmlns="http://www.w3.org/2000/svg"
   xmlns:sodipodi="http://sodipodi.sourceforge.net/DTD/sodipodi-0.dtd"
   xmlns:inkscape="http://www.inkscape.org/namespaces/inkscape"
   width="55mm"
   height="35mm"
   viewBox="0 0 55 35"
   version="1.1"
   id="svg8"
   inkscape:version="0.92.1 r15371"
   sodipodi:docname="lang_en.svg">
  <defs
     id="defs2" />
  <sodipodi:namedview
     id="base"
     pagecolor="#ffffff"
     bordercolor="#666666"
     borderopacity="1.0"
     inkscape:pageopacity="0.0"
     inkscape:pageshadow="2"
     inkscape:zoom="0.7"
     inkscape:cx="163.81935"
     inkscape:cy="-21.181102"
     inkscape:document-units="mm"
     inkscape:current-layer="layer1"
     showgrid="false"
     inkscape:pagecheckerboard="false"
     inkscape:window-width="1920"
     inkscape:window-height="1017"
     inkscape:window-x="-8"
     inkscape:window-y="-8"
     inkscape:window-maximized="1" />
  <metadata
     id="metadata5">
    <rdf:RDF>
      <cc:Work
         rdf:about="">
        <dc:format>image/svg+xml</dc:format>
        <dc:type
           rdf:resource="http://purl.org/dc/dcmitype/StillImage" />
        <dc:title></dc:title>
      </cc:Work>
    </rdf:RDF>
  </metadata>
  <g
     inkscape:label="Layer 1"
     inkscape:groupmode="layer"
     id="layer1"
     transform="translate(0,-262)">
    <g
       id="g4525"
       transform="matrix(0.81003116,0,0,1.0329236,-7.4438783,209.13048)">
      <path
         style="fill:#fdfdfd;stroke-width:0.26458332"
         d="M 9.22262,68.135412 V 51.20208 H 43.089285 76.95595 V 68.135412 85.068745 H 43.089285 9.22262 Z"
         id="path4541"
         inkscape:connector-curvature="0" />
      <path
         style="fill:#9ca8cb;stroke-width:0.26458332"
         d="m 9.5092519,84.959657 c 0.060634,-0.06 5.0829471,-2.625021 11.1606961,-5.700048 l 11.050453,-5.590964 1.91413,0.07765 1.914129,0.07766 -11.177414,5.622395 -11.177415,5.622396 H 11.29642 c -1.043576,0 -1.8478017,-0.04909 -1.7871681,-0.109089 z m 16.6467001,-5.31487 c 5.893594,-2.967328 10.864453,-5.401626 11.046354,-5.40955 0.254296,-0.01108 0.330729,1.239088 0.330729,5.40955 v 5.423958 L 26.486682,85.054338 15.440328,85.039929 Z M 39.649702,78.32187 V 71.574996 H 24.436161 9.22262 V 68.135412 64.695829 H 24.436161 39.649702 V 57.948955 51.20208 h 3.439583 3.439583 v 6.746875 6.746874 H 61.742409 76.95595 v 3.439583 3.439584 H 61.742409 46.528868 v 6.746874 6.746875 h -3.439583 -3.439583 z m 8.995833,1.189996 V 73.954985 L 59.559597,79.4088 c 6.002734,2.999597 10.963671,5.500192 11.024306,5.556879 0.06063,0.05669 -4.850696,0.103066 -10.914062,0.103066 H 48.645535 Z m 16.801041,-0.07994 -11.1125,-5.607976 1.901939,-0.07741 1.901938,-0.07741 9.342853,4.707616 9.342852,4.707617 0.08212,0.992188 c 0.04516,0.545703 -0.01437,0.985699 -0.132292,0.977767 -0.117927,-0.0079 -5.215035,-2.538007 -11.326909,-5.622395 z M 9.22262,77.792704 v -4.101042 h 8.069791 c 4.438385,0 8.069792,0.05915 8.069792,0.131438 0,0.130123 -15.7475268,8.070645 -16.0055845,8.070645 -0.073699,0 -0.1339985,-1.845469 -0.1339985,-4.101041 z m 59.465101,0.117112 c -4.329244,-2.175424 -7.871354,-4.014455 -7.871354,-4.086735 0,-0.07228 3.631407,-0.131419 8.069792,-0.131419 h 8.069791 v 4.101042 c 0,2.255572 -0.0893,4.094604 -0.198437,4.086732 -0.109141,-0.0079 -3.740547,-1.794197 -8.069792,-3.96962 z M 9.22262,58.478121 c 0,-2.255572 0.060299,-4.101041 0.1339985,-4.101041 0.2580577,0 16.0055845,7.940522 16.0055845,8.070645 0,0.07229 -3.631407,0.131438 -8.069792,0.131438 H 9.22262 Z m 9.392708,-0.57283 c -5.093229,-2.554829 -9.2980813,-4.679546 -9.3441162,-4.721593 -0.046035,-0.04205 -0.046035,-0.498948 0,-1.015337 l 0.0837,-0.938888 11.1124992,5.572381 c 6.111875,3.064809 11.162109,5.618489 11.222743,5.674844 0.06063,0.05636 -0.772804,0.096 -1.852084,0.0881 l -1.962326,-0.01436 z m 32.146873,4.542196 c 0,-0.07242 5.000072,-2.632266 11.111269,-5.688542 l 11.11127,-5.556865 2.051751,0.01442 2.051751,0.01442 -11.244791,5.659698 -11.244792,5.659698 -1.918229,0.01442 c -1.055026,0.0079 -1.918229,-0.04483 -1.918229,-0.117255 z m 10.054166,2.38e-4 c 0,-0.130123 15.747526,-8.070645 16.005585,-8.070645 0.0737,0 0.133998,1.845469 0.133998,4.101041 v 4.101042 h -8.069791 c -4.438385,0 -8.069792,-0.05915 -8.069792,-0.131438 z M 26.420536,56.75833 15.440328,51.23091 26.486682,51.216495 37.533035,51.20208 v 5.55625 c 0,3.055937 -0.02976,5.549763 -0.06615,5.541835 -0.03638,-0.0079 -5.007239,-2.501754 -11.046353,-5.541835 z m 22.224999,6.35e-4 V 51.20208 h 11.024306 c 6.063366,0 10.974693,0.04638 10.914062,0.103067 -0.06064,0.05669 -5.021572,2.557282 -11.024306,5.55688 L 48.645535,62.31584 v -5.55688 z"
         id="path4539"
         inkscape:connector-curvature="0" />
      <path
         style="fill:#d9495b;stroke-width:0.26458332"
         d="m 20.687799,79.35419 11.332888,-5.685705 1.717235,0.07773 1.717235,0.07773 -11.270806,5.622395 -11.270807,5.622396 -1.779316,-0.01443 -1.7793163,-0.01443 z m 5.732737,0.290597 c 5.893593,-2.967328 10.804921,-5.401626 10.914062,-5.40955 0.10914,-0.0079 0.198437,2.426373 0.198437,5.40955 v 5.423958 L 26.618973,85.054338 15.704911,85.039929 Z M 39.649702,78.32187 V 71.574996 H 24.436161 9.22262 V 68.135412 64.695829 H 24.436161 39.649702 V 57.948955 51.20208 h 3.439583 3.439583 v 6.746875 6.746874 H 61.742409 76.95595 v 3.439583 3.439584 H 61.742409 46.528868 v 6.746874 6.746875 h -3.439583 -3.439583 z m 8.995833,1.322917 c 0,-2.983177 0.0893,-5.417475 0.198437,-5.40955 0.109141,0.0079 5.020469,2.442222 10.914062,5.40955 l 10.715625,5.395142 -10.914062,0.01442 -10.914062,0.0144 z m 16.933332,-0.264583 -11.244791,-5.659698 1.787369,-0.01442 1.787366,-0.01442 9.523571,4.763214 9.523568,4.763217 v 0.925324 c 0,0.508931 -0.02977,0.918837 -0.06615,0.910905 -0.03638,-0.0079 -5.126302,-2.561286 -11.310937,-5.674119 z M 9.22262,77.793558 v -4.101896 h 7.9375 c 4.365624,0 7.937499,0.05915 7.937499,0.131438 0,0.07229 -3.571875,1.918144 -7.937499,4.101895 l -7.9375,3.970457 z m 59.531247,-0.01836 -8.069791,-4.054912 8.011948,-0.01431 c 6.327452,-0.0113 8.039615,0.05778 8.143533,0.328584 0.07237,0.188593 0.0984,2.019745 0.05784,4.069227 l -0.07374,3.72633 -8.069791,-4.054914 z M 9.22262,58.477267 v -4.101895 l 8.003645,3.99897 c 4.402005,2.199434 8.053255,4.045287 8.113889,4.101895 0.06063,0.05661 -3.541007,0.102926 -8.003645,0.102926 H 9.22262 Z m 9.518936,-0.60987 -9.3866443,-4.711766 -0.082646,-0.985643 -0.082646,-0.985643 11.1289993,5.565733 c 6.12095,3.061153 11.129,5.624987 11.129,5.697409 0,0.07242 -0.74687,0.131676 -1.65971,0.131676 -1.623028,0 -1.867167,-0.104136 -11.046353,-4.711766 z m 43.133145,-0.976776 11.244791,-5.659698 h 1.852083 1.852083 L 65.578867,56.890621 54.334076,62.550319 H 52.481993 50.62991 Z m -1.036286,5.585616 c 0.06064,-0.05661 3.711885,-1.902461 8.11389,-4.101895 l 8.003645,-3.99897 v 4.101895 4.101896 h -8.113889 c -4.462637,0 -8.064278,-0.04632 -8.003646,-0.102926 z M 26.420536,56.626038 15.704911,51.230896 26.618973,51.216488 37.533035,51.20208 v 5.423958 c 0,2.983177 -0.0893,5.417475 -0.198437,5.40955 -0.109141,-0.0079 -5.020469,-2.442222 -10.914062,-5.40955 z m 22.224999,0 V 51.20208 l 10.914062,0.01441 10.914062,0.01441 -10.715625,5.395142 c -5.893593,2.967328 -10.804921,5.401626 -10.914062,5.40955 -0.10914,0.0079 -0.198437,-2.426373 -0.198437,-5.40955 z"
         id="path4537"
         inkscape:connector-curvature="0" />
      <path
         style="fill:#4b64a3;stroke-width:0.26458332"
         d="M 20.599703,79.512495 C 31.34484,74.103409 31.615549,73.984767 33.244572,73.97066 l 1.664661,-0.01441 -11.128275,5.556249 C 13.100566,84.845126 12.591645,85.06817 11.136089,85.054335 l -1.516594,-0.01441 z m 5.820833,0.132292 c 5.893593,-2.967328 10.804921,-5.401626 10.914062,-5.40955 0.10914,-0.0079 0.198437,2.426373 0.198437,5.40955 v 5.423958 l -10.914062,-0.01441 -10.914062,-0.01441 z m 13.432069,-1.389062 -0.07061,-6.813021 -15.279686,-0.0683 -15.279687,-0.0683 v -3.170702 -3.170701 l 15.279687,-0.06829 15.279686,-0.0683 0.07061,-6.813021 0.07061,-6.81302 h 3.166068 3.166068 l 0.07061,6.81302 0.07061,6.813021 15.147395,0.06831 15.147395,0.06831 v 3.170666 3.170667 l -15.147395,0.06831 -15.147395,0.06831 -0.07061,6.813021 -0.07061,6.81302 h -3.166068 -3.166068 z m 8.79293,1.389062 c 0,-2.983177 0.0893,-5.417475 0.198437,-5.40955 0.109141,0.0079 5.020469,2.442222 10.914062,5.40955 l 10.715625,5.395142 -10.914062,0.01442 -10.914062,0.0144 z m 17.197916,-0.264583 -10.715625,-5.395143 1.522825,-0.01441 c 1.454812,-0.01376 1.936345,0.192419 10.781771,4.616536 9.079367,4.541125 9.258945,4.646323 9.258945,5.423958 0,0.436157 -0.02977,0.786532 -0.06615,0.778607 -0.03638,-0.0079 -4.888177,-2.442224 -10.78177,-5.409552 z M 9.22262,77.793558 v -4.101896 h 7.9375 c 4.365624,0 7.937499,0.05915 7.937499,0.131438 0,0.07229 -3.571875,1.918144 -7.937499,4.101895 l -7.9375,3.970457 z m 59.531247,-0.01836 -8.069791,-4.054912 8.011948,-0.01431 c 6.327452,-0.0113 8.039615,0.05778 8.143533,0.328584 0.07237,0.188593 0.0984,2.019745 0.05784,4.069227 l -0.07374,3.72633 -8.069791,-4.054914 z M 9.22262,58.477267 v -4.101895 l 8.003645,3.99897 c 4.402005,2.199434 8.053255,4.045287 8.113889,4.101895 0.06063,0.05661 -3.541007,0.102926 -8.003645,0.102926 H 9.22262 Z m 51.615795,3.99897 c 0.06064,-0.05661 3.711885,-1.902461 8.11389,-4.101895 l 8.003645,-3.99897 v 4.101895 4.101896 h -8.113889 c -4.462637,0 -8.064278,-0.04632 -8.003646,-0.102926 z M 18.549182,57.661434 C 9.4885243,53.141237 9.22262,52.986602 9.22262,52.237623 c 0,-0.424028 0.089297,-0.764476 0.1984375,-0.756552 0.1091406,0.0079 5.0204685,2.442222 10.9140615,5.40955 l 10.715625,5.395143 -1.5875,0.01426 c -1.537497,0.01381 -1.881268,-0.132294 -10.914062,-4.63859 z M 62.403867,56.75833 c 10.646286,-5.359324 11.028487,-5.52742 12.567708,-5.52742 h 1.5875 L 65.578867,56.75833 C 54.932582,62.117653 54.550381,62.28575 53.01116,62.28575 h -1.5875 z M 26.420536,56.626038 15.704911,51.230896 26.618973,51.216488 37.533035,51.20208 v 5.423958 c 0,2.983177 -0.0893,5.417475 -0.198437,5.40955 -0.109141,-0.0079 -5.020469,-2.442222 -10.914062,-5.40955 z m 22.224999,0 V 51.20208 l 10.914062,0.01441 10.914062,0.01441 -10.715625,5.395142 c -5.893593,2.967328 -10.804921,5.401626 -10.914062,5.40955 -0.10914,0.0079 -0.198437,-2.426373 -0.198437,-5.40955 z"
         id="path4535"
         inkscape:connector-curvature="0" />
      <path
         style="fill:#2e4892;stroke-width:0.26458332"
         d="M 20.599703,79.512495 C 31.34484,74.103409 31.615549,73.984767 33.244572,73.97066 l 1.664661,-0.01441 -11.128275,5.556249 C 13.100566,84.845126 12.591645,85.06817 11.136089,85.054335 l -1.516594,-0.01441 z m -4.497917,5.424604 c 0,-0.07241 4.7625,-2.513478 10.583333,-5.424604 l 10.583333,-5.292957 v 5.424603 5.424604 H 26.685119 c -5.820833,0 -10.583333,-0.05924 -10.583333,-0.131646 z m 23.750819,-6.681374 -0.07061,-6.813021 -15.279686,-0.0683 -15.279687,-0.0683 v -3.170702 -3.170701 l 15.279687,-0.06829 15.279686,-0.0683 0.07061,-6.813021 0.07061,-6.81302 h 3.166068 3.166068 l 0.07061,6.81302 0.07061,6.813021 15.147395,0.06831 15.147395,0.06831 v 3.170666 3.170667 l -15.147395,0.06831 -15.147395,0.06831 -0.07061,6.813021 -0.07061,6.81302 h -3.166068 -3.166068 z m 9.001784,1.388797 c -0.04211,-2.983321 -0.05567,-5.424102 -0.03013,-5.423957 0.177943,0.001 21.252526,10.646676 21.252526,10.73555 0,0.06195 -4.757812,0.11263 -10.572916,0.11263 h -10.57292 z m 16.989062,-0.264318 -10.715625,-5.395143 1.522825,-0.01441 c 1.454812,-0.01376 1.936345,0.192419 10.781771,4.616536 9.079367,4.541125 9.258945,4.646323 9.258945,5.423958 0,0.436157 -0.02977,0.786532 -0.06615,0.778607 -0.03638,-0.0079 -4.888177,-2.442224 -10.78177,-5.409552 z M 9.22262,77.925876 v -3.96963 h 7.849305 c 4.317118,0 7.799696,0.04631 7.739062,0.102907 -0.06063,0.0566 -3.592821,1.842933 -7.849305,3.96963 L 9.22262,81.89551 Z m 59.531247,-0.133172 -7.540625,-3.807889 7.871354,-0.01429 7.871354,-0.01428 v 3.836458 c 0,2.900396 -0.0807,3.832973 -0.330729,3.822173 -0.181901,-0.0079 -3.72401,-1.727835 -7.871354,-3.822173 z M 16.961682,62.380883 9.22262,62.306587 v -3.832462 c 0,-2.395505 0.099865,-3.832462 0.2663471,-3.832462 0.3457461,0 15.6086519,7.633178 15.6086519,7.80609 0,0.07228 -0.0893,0.103513 -0.198437,0.06942 -0.109141,-0.0341 -3.681016,-0.09542 -7.9375,-0.136288 z m 44.119269,0.09518 c 0,-0.191723 15.226677,-7.834398 15.608651,-7.834398 0.166497,0 0.266348,1.438272 0.266348,3.836458 v 3.836458 h -7.518984 c -4.135443,0 -7.707318,0.07227 -7.9375,0.1606 -0.230185,0.08833 -0.418515,0.08873 -0.418515,8.82e-4 z M 18.549182,57.661434 C 9.4885243,53.141237 9.22262,52.986602 9.22262,52.237623 c 0,-0.424028 0.089297,-0.764476 0.1984375,-0.756552 0.1091406,0.0079 5.0204685,2.442222 10.9140615,5.40955 l 10.715625,5.395143 -1.5875,0.01426 c -1.537497,0.01381 -1.881268,-0.132294 -10.914062,-4.63859 z M 62.403867,56.75833 c 10.646286,-5.359324 11.028487,-5.52742 12.567708,-5.52742 h 1.5875 L 65.578867,56.75833 C 54.932582,62.117653 54.550381,62.28575 53.01116,62.28575 h -1.5875 z m -35.983331,-0.132292 -10.715625,-5.395142 10.781771,-0.01441 10.78177,-0.01441 v 5.423958 c 0,2.983177 -0.02977,5.417475 -0.06615,5.40955 -0.03638,-0.0079 -4.888177,-2.442222 -10.78177,-5.40955 z m 22.433853,2.64e-4 0.07656,-5.424222 10.771356,0.01441 10.771354,0.01441 -10.715625,5.395142 c -5.893593,2.967328 -10.775156,5.401745 -10.847916,5.409814 -0.07276,0.0081 -0.09784,-2.426228 -0.05573,-5.40955 z"
         id="path4533"
         inkscape:connector-curvature="0" />
      <path
         style="fill:#cd1129;stroke-width:0.26458332"
         d="M 20.599703,79.512495 C 31.34484,74.103409 31.615549,73.984767 33.244572,73.97066 l 1.664661,-0.01441 -11.128275,5.556249 C 13.100566,84.845126 12.591645,85.06817 11.136089,85.054335 l -1.516594,-0.01441 z m 5.820833,0.264584 c 5.748072,-2.894576 10.540338,-5.269346 10.649478,-5.277266 0.109141,-0.0079 0.198438,2.366849 0.198438,5.277266 v 5.291666 l -10.649479,-0.01439 -10.649478,-0.01441 z m 13.432069,-1.521354 -0.07061,-6.813021 -15.279686,-0.0683 -15.279687,-0.0683 v -3.170702 -3.170701 l 15.279687,-0.06829 15.279686,-0.0683 0.07061,-6.813021 0.07061,-6.81302 h 3.166068 3.166068 l 0.07061,6.81302 0.07061,6.813021 15.147395,0.06831 15.147395,0.06831 v 3.170666 3.170667 l -15.147395,0.06831 -15.147395,0.06831 -0.07061,6.813021 -0.07061,6.81302 h -3.166068 -3.166068 z m 9.057513,1.521354 c 0,-2.910417 0.0893,-5.285187 0.198438,-5.277266 0.10914,0.0079 4.901406,2.38269 10.649478,5.277266 l 10.451041,5.262866 -10.649478,0.01439 -10.649479,0.01441 z m 16.933333,-0.396875 -10.715625,-5.395143 1.522825,-0.01441 c 1.454812,-0.01376 1.936345,0.192419 10.781771,4.616536 9.079367,4.541125 9.258945,4.646323 9.258945,5.423958 0,0.436157 -0.02977,0.786532 -0.06615,0.778607 -0.03638,-0.0079 -4.888177,-2.442224 -10.78177,-5.409552 z M 9.22262,77.792704 v -3.836458 h 7.835373 7.835372 l -7.679097,3.836458 c -4.223503,2.110052 -7.7494209,3.836458 -7.8353724,3.836458 -0.085952,0 -0.1562756,-1.726406 -0.1562756,-3.836458 z m 59.531247,-0.01847 -7.540625,-3.810073 7.739063,-0.004 7.739062,-0.004 v 3.836458 c 0,2.110052 -0.0893,3.826367 -0.198438,3.814034 -0.10914,-0.01233 -3.591718,-1.736957 -7.739062,-3.832497 z M 9.22262,58.478121 c 0,-2.110052 0.089297,-3.83003 0.1984375,-3.822173 0.1091406,0.0079 3.5917185,1.727834 7.7390625,3.822173 l 7.540624,3.807889 -7.739062,0.01429 -7.739062,0.01428 z m 9.326562,-0.816687 C 9.4885243,53.141237 9.22262,52.986602 9.22262,52.237623 c 0,-0.424028 0.089297,-0.764476 0.1984375,-0.756552 0.1091406,0.0079 5.0204685,2.442222 10.9140615,5.40955 l 10.715625,5.395143 -1.5875,0.01426 c -1.537497,0.01381 -1.881268,-0.132294 -10.914062,-4.63859 z M 62.403867,56.75833 c 10.646286,-5.359324 11.028487,-5.52742 12.567708,-5.52742 h 1.5875 L 65.578867,56.75833 C 54.932582,62.117653 54.550381,62.28575 53.01116,62.28575 h -1.5875 z m -0.79375,5.364582 c 0.218282,-0.08244 3.70086,-1.799858 7.739063,-3.816483 l 7.342187,-3.666591 v 3.83737 3.837371 l -7.739062,-0.02089 C 64.69582,62.282199 61.391836,62.205349 61.610117,62.12291 Z M 26.594951,56.626038 16.053742,51.334372 26.569831,51.265154 c 5.783848,-0.03807 10.559678,-0.02563 10.612954,0.02765 0.05328,0.05328 0.06458,2.465675 0.02511,5.360885 l -0.07173,5.264016 z m 22.315167,-0.05562 V 51.20208 h 10.627431 c 5.845085,0 10.577819,0.04543 10.517187,0.100965 -0.06064,0.05553 -4.842978,2.471283 -10.627431,5.368339 l -10.517187,5.267375 z"
         id="path4531"
         inkscape:connector-curvature="0" />
      <path
         style="fill:#143485;stroke-width:0.26458332"
         d="m 26.420536,79.777079 c 5.748072,-2.894576 10.540338,-5.269346 10.649478,-5.277266 0.109141,-0.0079 0.198438,2.366849 0.198438,5.277266 v 5.291666 l -10.649479,-0.01439 -10.649478,-0.01441 z m 22.489582,0 c 0,-2.910417 0.0893,-5.285187 0.198438,-5.277266 0.10914,0.0079 4.901406,2.38269 10.649478,5.277266 l 10.451041,5.262866 -10.649478,0.01439 -10.649479,0.01441 z M 9.22262,77.792704 v -3.836458 h 7.835373 7.835372 l -7.679097,3.836458 c -4.223503,2.110052 -7.7494209,3.836458 -7.8353724,3.836458 -0.085952,0 -0.1562756,-1.726406 -0.1562756,-3.836458 z m 59.531247,-0.01847 -7.540625,-3.810073 7.739063,-0.004 7.739062,-0.004 v 3.836458 c 0,2.110052 -0.0893,3.826367 -0.198438,3.814034 -0.10914,-0.01233 -3.591718,-1.736957 -7.739062,-3.832497 z M 9.22262,58.478121 c 0,-2.110052 0.089297,-3.83003 0.1984375,-3.822173 0.1091406,0.0079 3.5917185,1.727834 7.7390625,3.822173 l 7.540624,3.807889 -7.739062,0.01429 -7.739062,0.01428 z m 52.387497,3.644791 c 0.218282,-0.08244 3.70086,-1.799858 7.739063,-3.816483 l 7.342187,-3.666591 v 3.83737 3.837371 l -7.739062,-0.02089 C 64.69582,62.282199 61.391836,62.205349 61.610117,62.12291 Z M 26.594951,56.626038 16.053742,51.334372 26.569831,51.265154 c 5.783848,-0.03807 10.559678,-0.02563 10.612954,0.02765 0.05328,0.05328 0.06458,2.465675 0.02511,5.360885 l -0.07173,5.264016 z m 22.315167,-0.05562 V 51.20208 h 10.627431 c 5.845085,0 10.577819,0.04543 10.517187,0.100965 -0.06064,0.05553 -4.842978,2.471283 -10.627431,5.368339 l -10.517187,5.267375 z"
         id="path4529"
         inkscape:connector-curvature="0" />
      <path
         style="fill:#00227b;stroke-width:0.26458332"
         d="m 26.685119,79.644787 c 5.602552,-2.821824 10.275755,-5.137066 10.384895,-5.144982 0.109141,-0.0079 0.198438,2.307326 0.198438,5.144982 v 5.159375 l -10.384895,-0.01439 -10.384896,-0.01439 z m 22.224999,0 c 0,-2.837656 0.0893,-5.152898 0.198438,-5.144982 0.10914,0.0079 4.782343,2.323158 10.384895,5.144982 l 10.186458,5.130591 -10.384896,0.01439 -10.384895,0.01439 z M 9.4872033,77.793617 v -3.837371 h 7.5847217 c 4.171597,0 7.535113,0.0463 7.474479,0.102887 -0.06063,0.05659 -3.473759,1.783405 -7.584722,3.837372 l -7.4744787,3.734482 z m 59.5312467,-9.13e-4 -7.540624,-3.807889 7.60677,-0.01429 7.606771,-0.01428 v 3.836458 c 0,2.110052 -0.02977,3.830028 -0.06615,3.822173 -0.03638,-0.0079 -3.459427,-1.727835 -7.606771,-3.822173 z M 9.4872033,58.477208 v -3.83737 l 7.4744787,3.734483 c 4.110963,2.053966 7.524088,3.780782 7.584722,3.837371 0.06063,0.05659 -3.302882,0.102887 -7.474479,0.102887 H 9.4872033 Z m 52.1449617,3.734484 c 0.06063,-0.05659 3.47376,-1.783405 7.584723,-3.837371 l 7.474479,-3.734483 v 3.83737 3.837371 h -7.584723 c -4.171595,0 -7.535111,-0.0463 -7.474479,-0.102887 z m -34.947046,-5.585654 -10.186458,-5.130589 10.384896,-0.01439 10.384895,-0.01439 v 5.159375 c 0,2.837656 -0.0893,5.152898 -0.198438,5.144982 -0.10914,-0.0079 -4.782343,-2.323158 -10.384895,-5.144982 z m 22.224999,0 v -5.159375 l 10.384895,0.01439 10.384896,0.01439 -10.186458,5.13059 c -5.602552,2.821824 -10.275755,5.137066 -10.384895,5.144982 -0.109141,0.0079 -0.198438,-2.307326 -0.198438,-5.144982 z"
         id="path4527"
         inkscape:connector-curvature="0" />
    </g>
  </g>
</svg>
