<?xml version="1.0" encoding="iso-8859-1"?>
<!-- Generator: Adobe Illustrator 18.1.1, SVG Export Plug-In . SVG Version: 6.00 Build 0)  -->
<svg version="1.1" id="Capa_1" xmlns="http://www.w3.org/2000/svg" xmlns:xlink="http://www.w3.org/1999/xlink" x="0px" y="0px"
	 viewBox="0 0 80 80" style="enable-background:new 0 0 80 80;" xml:space="preserve">
<g id="_x37_7_Essential_Icons_2_">
	<path id="Book" d="M33.3,29.607c-0.6,2.5-3.7,1.1-2.4,1.4l-19.7-5c-1.1-0.3-1.7-1.4-1.4-2.4c0.3-1.1,1.4-1.7,2.4-1.4l19.7,5.1
		C32.9,27.507,33.5,28.607,33.3,29.607z M31.8,40.607l-19.7-5.1c-1.1-0.3-2.2,0.4-2.4,1.4c-0.3,1.1,0.4,2.2,1.4,2.4l19.7,5.1
		c-1.3-0.3,1.8,0.9,2.4-1.4C33.5,42.007,32.9,40.907,31.8,40.607z M25.9,52.307l-13.8-3.6c-1.1-0.3-2.2,0.4-2.4,1.4
		c-0.3,1.1,0.4,2.2,1.4,2.4l13.8,3.6c-1.3-0.3,1.8,0.9,2.4-1.4C27.6,53.707,27,52.607,25.9,52.307z M80,9.007v52.5
		c0,0.9-0.6,1.7-1.5,1.9l-38,9.5c-0.3,0.1-0.7,0.1-1,0l-38-9.5c-0.9-0.2-1.5-1-1.5-1.9v-52.5c0-1.3,1.2-2.3,2.5-1.9l37.5,9.4
		l37.5-9.4C78.8,6.707,80,7.707,80,9.007z M38,20.107l-34-8.5v48.3l34,8.5V20.107z M76,11.607l-34,8.5v48.3l34-8.5V11.607z
		 M70.2,23.607c-0.3-1.1-1.4-1.7-2.4-1.4l-19.7,5.1c-1.1,0.3-1.7,1.4-1.4,2.4c0.6,2.5,3.7,1.1,2.4,1.4l19.7-5.1
		C69.9,25.707,70.5,24.607,70.2,23.607z M70.2,37.007c-0.3-1.1-1.4-1.7-2.4-1.4l-19.7,5.1c-1.1,0.3-1.7,1.4-1.4,2.4
		c0.6,2.4,3.7,1.1,2.4,1.4l19.7-5.1C69.9,39.107,70.5,38.007,70.2,37.007z M64.3,51.707c-0.3-1.1-1.4-1.7-2.4-1.4l-13.8,3.6
		c-1.1,0.3-1.7,1.4-1.4,2.4c0.6,2.5,3.7,1.1,2.4,1.4l13.8-3.5C64,53.907,64.6,52.807,64.3,51.707z"/>
</g>
<g>
</g>
<g>
</g>
<g>
</g>
<g>
</g>
<g>
</g>
<g>
</g>
<g>
</g>
<g>
</g>
<g>
</g>
<g>
</g>
<g>
</g>
<g>
</g>
<g>
</g>
<g>
</g>
<g>
</g>
</svg>
