<?xml version="1.0" encoding="UTF-8" standalone="no"?>
<svg
   xmlns:dc="http://purl.org/dc/elements/1.1/"
   xmlns:cc="http://creativecommons.org/ns#"
   xmlns:rdf="http://www.w3.org/1999/02/22-rdf-syntax-ns#"
   xmlns:svg="http://www.w3.org/2000/svg"
   xmlns="http://www.w3.org/2000/svg"
   xmlns:sodipodi="http://sodipodi.sourceforge.net/DTD/sodipodi-0.dtd"
   xmlns:inkscape="http://www.inkscape.org/namespaces/inkscape"
   height="45mm"
   viewBox="0 0 94.999999 44.999999"
   width="95mm"
   version="1.1"
   id="svg5614"
   sodipodi:docname="move_to_Sold.svg"
   inkscape:version="0.92.1 r15371">
  <metadata
     id="metadata5620">
    <rdf:RDF>
      <cc:Work
         rdf:about="">
        <dc:format>image/svg+xml</dc:format>
        <dc:type
           rdf:resource="http://purl.org/dc/dcmitype/StillImage" />
        <dc:title></dc:title>
      </cc:Work>
    </rdf:RDF>
  </metadata>
  <defs
     id="defs5618" />
  <sodipodi:namedview
     pagecolor="#ffffff"
     bordercolor="#666666"
     borderopacity="1"
     objecttolerance="10"
     gridtolerance="10"
     guidetolerance="10"
     inkscape:pageopacity="0"
     inkscape:pageshadow="2"
     inkscape:window-width="1920"
     inkscape:window-height="1017"
     id="namedview5616"
     showgrid="true"
     inkscape:zoom="1.0026316"
     inkscape:cx="536.18689"
     inkscape:cy="133.84759"
     inkscape:window-x="-8"
     inkscape:window-y="-8"
     inkscape:window-maximized="1"
     inkscape:current-layer="svg5614"
     units="mm"
     scale-x="2"
     inkscape:document-units="mm">
    <inkscape:grid
       type="xygrid"
       id="grid5668" />
  </sodipodi:namedview>
  <g
     transform="matrix(0.75146682,0,0,0.75146682,564.91647,-369.66251)"
     id="g3762" />
  <g
     transform="matrix(0.75146682,0,0,0.75146682,564.91647,-369.66251)"
     id="g3764" />
  <g
     transform="matrix(0.75146682,0,0,0.75146682,564.91647,-369.66251)"
     id="g3766" />
  <g
     transform="matrix(0.75146682,0,0,0.75146682,564.91647,-369.66251)"
     id="g3768" />
  <g
     transform="matrix(0.75146682,0,0,0.75146682,564.91647,-369.66251)"
     id="g3770" />
  <g
     transform="matrix(0.75146682,0,0,0.75146682,564.91647,-369.66251)"
     id="g3772" />
  <g
     transform="matrix(0.75146682,0,0,0.75146682,564.91647,-369.66251)"
     id="g3774" />
  <g
     transform="matrix(0.75146682,0,0,0.75146682,564.91647,-369.66251)"
     id="g3776" />
  <g
     transform="matrix(0.75146682,0,0,0.75146682,564.91647,-369.66251)"
     id="g3778" />
  <g
     transform="matrix(0.75146682,0,0,0.75146682,564.91647,-369.66251)"
     id="g3780" />
  <g
     transform="matrix(0.75146682,0,0,0.75146682,564.91647,-369.66251)"
     id="g3782" />
  <g
     transform="matrix(0.75146682,0,0,0.75146682,564.91647,-369.66251)"
     id="g3784" />
  <g
     transform="matrix(0.75146682,0,0,0.75146682,564.91647,-369.66251)"
     id="g3786" />
  <g
     transform="matrix(0.75146682,0,0,0.75146682,564.91647,-369.66251)"
     id="g3788" />
  <g
     transform="matrix(0.75146682,0,0,0.75146682,564.91647,-369.66251)"
     id="g3790" />
  <g
     id="g5036"
     transform="matrix(0.75146682,0,0,0.75146682,58.871731,-379.57165)" />
  <g
     id="g5038"
     transform="matrix(0.75146682,0,0,0.75146682,58.871731,-379.57165)" />
  <g
     id="g5040"
     transform="matrix(0.75146682,0,0,0.75146682,58.871731,-379.57165)" />
  <g
     id="g5042"
     transform="matrix(0.75146682,0,0,0.75146682,58.871731,-379.57165)" />
  <g
     id="g5044"
     transform="matrix(0.75146682,0,0,0.75146682,58.871731,-379.57165)" />
  <g
     id="g5046"
     transform="matrix(0.75146682,0,0,0.75146682,58.871731,-379.57165)" />
  <g
     id="g5048"
     transform="matrix(0.75146682,0,0,0.75146682,58.871731,-379.57165)" />
  <g
     id="g5050"
     transform="matrix(0.75146682,0,0,0.75146682,58.871731,-379.57165)" />
  <g
     id="g5052"
     transform="matrix(0.75146682,0,0,0.75146682,58.871731,-379.57165)" />
  <g
     id="g5054"
     transform="matrix(0.75146682,0,0,0.75146682,58.871731,-379.57165)" />
  <g
     id="g5056"
     transform="matrix(0.75146682,0,0,0.75146682,58.871731,-379.57165)" />
  <g
     id="g5058"
     transform="matrix(0.75146682,0,0,0.75146682,58.871731,-379.57165)" />
  <g
     id="g5060"
     transform="matrix(0.75146682,0,0,0.75146682,58.871731,-379.57165)" />
  <g
     id="g5062"
     transform="matrix(0.75146682,0,0,0.75146682,58.871731,-379.57165)" />
  <g
     id="g5064"
     transform="matrix(0.75146682,0,0,0.75146682,58.871731,-379.57165)" />
  <path
     style="fill:#000000;stroke-width:0.07702129"
     d="M 9.9084369,44.92962 0,44.910058 V 26.53181 8.1535741 h 9.7917049 9.7916921 l -0.189909,0.1861296 c -0.104462,0.1023334 -1.219642,1.1122265 -2.47822,2.2441213 l -2.288312,2.057979 H 9.6133073 4.5996585 v 14.006578 14.006566 l 14.6997475,-0.01958 14.699746,-0.01958 0.0173,-3.469275 0.0173,-3.469275 0.398407,-0.438583 c 0.219118,-0.241223 1.209022,-1.335152 2.19978,-2.430957 0.990755,-1.095806 1.81276,-1.980876 1.826681,-1.966824 0.01398,0.01411 0.02528,3.655604 0.02528,8.092333 v 8.066784 l -9.333485,-0.02542 C 24.017013,44.960636 15.358146,44.940426 9.9085098,44.929634 Z M 30.281102,27.64538 v -5.45872 l -0.627825,-0.09701 c -1.708046,-0.263938 -4.806466,-0.231016 -6.410796,0.06813 -0.751011,0.140033 -0.985486,0.198213 -1.892392,0.469536 -0.467021,0.139714 -1.667952,0.723054 -2.406029,1.16869 -1.754315,1.05925 -3.641944,2.674733 -5.412189,4.631949 -0.586134,0.648027 -1.878793,2.261235 -2.259515,2.81981 -0.136373,0.200076 -0.266598,0.344953 -0.289394,0.321945 -0.03979,-0.04019 0.06694,-1.197913 0.21474,-2.329236 0.689239,-5.273748 2.295032,-9.479331 4.70826,-12.330972 0.867077,-1.024584 1.839775,-1.84763 3.185929,-2.695759 1.611023,-1.01499 4.134688,-2.032722 6.474552,-2.611032 0.632457,-0.156307 1.270662,-0.314492 1.418227,-0.351526 0.32225,-0.08091 2.062966,-0.361866 2.759802,-0.445503 l 0.498292,-0.05975 0.03833,-5.3729678 L 30.319414,-8.2386091e-7 32.005956,1.845553 c 0.927599,1.0150435 1.926446,2.1096248 2.219673,2.4323939 0.293226,0.3227692 1.965677,2.1538581 3.716571,4.0691024 1.750883,1.9152307 3.388017,3.7085937 3.638046,3.9852397 0.250032,0.276646 0.682694,0.746741 0.961439,1.044665 0.426528,0.455856 1.443073,1.568056 2.255938,2.468231 C 44.908869,15.96841 45,16.093327 45,16.122696 c 0,0.05176 -0.50922,0.642651 -5.097966,5.916173 -1.180569,1.356749 -2.26581,2.609368 -2.411628,2.783587 -0.145825,0.17422 -0.52713,0.61275 -0.847359,0.974523 -0.754749,0.852654 -1.816633,2.072138 -4.211377,4.836456 -1.069256,1.234255 -1.99056,2.295102 -2.047343,2.357421 -0.08663,0.09515 -0.103264,-0.764746 -0.103264,-5.345396 z"
     id="path4547"
     inkscape:connector-curvature="0" />
  <g
     id="g5780"
     transform="matrix(1.0002285,0,0,1.0589705,-0.023686,-2.6618659)"
     style="stroke-width:0.9716469">
    <g
       transform="matrix(0.15164423,0,0,0.12894577,31.513979,-3.9881299)"
       style="stroke:#000000;stroke-width:24.91785812;stroke-miterlimit:4;stroke-dasharray:none;stroke-opacity:1"
       id="g6303">
      <g
         style="stroke:#000000;stroke-width:24.91785812;stroke-miterlimit:4;stroke-dasharray:none;stroke-opacity:1"
         id="g6301">
        <path
           inkscape:connector-curvature="0"
           style="stroke:#000000;stroke-width:6.94851494;stroke-miterlimit:4;stroke-dasharray:none;stroke-opacity:1"
           id="path6299"
           d="m 314.096,183.923 c -8.936,5.171 -19.216,8.158 -30.233,8.164 -16.739,-0.006 -31.812,-6.762 -42.79,-17.722 -4.651,-4.651 -8.478,-10.08 -11.418,-16.023 h 65.095 c 4.737,0 8.581,-3.844 8.581,-8.581 0,-4.743 -3.844,-8.581 -8.581,-8.581 h -70.57 c -0.497,-3.129 -0.836,-6.322 -0.836,-9.599 0,-3.283 0.337,-6.476 0.836,-9.611 h 70.558 c 4.737,0 8.581,-3.844 8.581,-8.581 0,-4.743 -3.844,-8.581 -8.581,-8.581 h -65.083 c 2.946,-5.938 6.779,-11.362 11.424,-16.018 10.978,-10.967 26.052,-17.722 42.784,-17.729 11.018,0 21.297,2.992 30.233,8.164 4.101,2.38 9.353,0.979 11.728,-3.124 C 328.199,72 326.803,66.748 322.7,64.373 311.299,57.766 298.01,53.893 283.863,53.898 250.386,53.904 221.949,75.115 211.029,104.8 h -10.807 c -4.737,0 -8.581,3.838 -8.581,8.581 0,4.737 3.844,8.581 8.581,8.581 h 6.625 c -0.389,3.158 -0.658,6.349 -0.658,9.611 0,3.255 0.269,6.447 0.652,9.599 h -6.619 c -4.737,0.014 -8.581,3.858 -8.581,8.594 0,4.736 3.844,8.581 8.581,8.581 h 10.807 c 10.914,29.684 39.358,50.896 72.834,50.902 14.147,0 27.436,-3.862 38.837,-10.474 4.101,-2.38 5.497,-7.625 3.124,-11.728 -2.381,-4.102 -7.626,-5.498 -11.728,-3.124 z" />
      </g>
    </g>
    <path
       style="stroke:#000000;stroke-width:0.19375075;stroke-miterlimit:4;stroke-dasharray:none;stroke-opacity:1"
       id="path5610"
       d="m 94.691973,21.683803 c -0.272109,-0.395909 -0.760337,-0.637719 -1.286542,-0.637719 -4.439869,0 -8.504653,2.004997 -10.819334,5.283371 h -17.83072 c -2.007728,0 -3.895649,0.686905 -5.315309,1.934482 l -8.891867,7.811546 c -0.586501,0.515611 -0.586892,1.352143 0,1.868099 3.651338,3.207513 7.48317,6.549178 7.521539,6.582197 0.586892,0.51217 1.533985,0.510796 2.119703,-9.79e-4 l 5.702524,-4.986919 h 12.594889 c 3.928146,0 7.500397,-1.898366 9.321367,-4.954191 0.04581,-0.07671 4.599608,-7.71145 6.9276,-11.602089 0.245092,-0.409668 0.228651,-0.901543 -0.04385,-1.297796 z m -9.547278,11.674321 c -1.300637,2.182487 -3.851798,3.53807 -6.657839,3.53807 H 65.271404 c -0.397786,0 -0.779129,0.138276 -1.060635,0.384556 l -5.083136,4.445119 C 57.929967,40.6802 55.868992,38.878832 53.737935,37.009015 l 7.8281,-6.877324 c 0.851954,-0.748477 1.984629,-1.160553 3.189342,-1.160553 h 16.216862 l -1.153816,1.93414 c -0.260362,0.436497 -0.770517,0.707546 -1.331567,0.707546 H 68.278298 c -0.83042,0 -1.503446,0.591283 -1.503446,1.320842 0,0.729559 0.673026,1.320842 1.503446,1.320842 h 10.208558 c 1.682765,0 3.213616,-0.813487 3.995097,-2.12298 0.0012,-0.0024 2.320552,-3.890292 2.320552,-3.890292 1.259136,-2.09271 3.407814,-3.594482 5.917863,-4.224289 -2.398856,4.014811 -5.537303,9.277199 -5.575673,9.341177 z m 0,0"
       inkscape:connector-curvature="0" />
  </g>
</svg>
