<?xml version="1.0" encoding="UTF-8" standalone="no"?>
<svg
   xmlns:dc="http://purl.org/dc/elements/1.1/"
   xmlns:cc="http://creativecommons.org/ns#"
   xmlns:rdf="http://www.w3.org/1999/02/22-rdf-syntax-ns#"
   xmlns:svg="http://www.w3.org/2000/svg"
   xmlns="http://www.w3.org/2000/svg"
   xmlns:sodipodi="http://sodipodi.sourceforge.net/DTD/sodipodi-0.dtd"
   xmlns:inkscape="http://www.inkscape.org/namespaces/inkscape"
   height="45mm"
   viewBox="0 0 94.999999 44.999999"
   width="95mm"
   version="1.1"
   id="svg5614"
   sodipodi:docname="move_to_forSale.svg"
   inkscape:version="0.92.1 r15371">
  <metadata
     id="metadata5620">
    <rdf:RDF>
      <cc:Work
         rdf:about="">
        <dc:format>image/svg+xml</dc:format>
        <dc:type
           rdf:resource="http://purl.org/dc/dcmitype/StillImage" />
        <dc:title></dc:title>
      </cc:Work>
    </rdf:RDF>
  </metadata>
  <defs
     id="defs5618" />
  <sodipodi:namedview
     pagecolor="#ffffff"
     bordercolor="#666666"
     borderopacity="1"
     objecttolerance="10"
     gridtolerance="10"
     guidetolerance="10"
     inkscape:pageopacity="0"
     inkscape:pageshadow="2"
     inkscape:window-width="1920"
     inkscape:window-height="1017"
     id="namedview5616"
     showgrid="true"
     inkscape:zoom="0.67351921"
     inkscape:cx="235.71299"
     inkscape:cy="-62.584587"
     inkscape:window-x="-8"
     inkscape:window-y="-8"
     inkscape:window-maximized="1"
     inkscape:current-layer="svg5614"
     units="mm"
     scale-x="2"
     inkscape:document-units="mm">
    <inkscape:grid
       type="xygrid"
       id="grid5668" />
  </sodipodi:namedview>
  <g
     transform="matrix(0.75146682,0,0,0.75146682,564.91647,-369.66251)"
     id="g3762" />
  <g
     transform="matrix(0.75146682,0,0,0.75146682,564.91647,-369.66251)"
     id="g3764" />
  <g
     transform="matrix(0.75146682,0,0,0.75146682,564.91647,-369.66251)"
     id="g3766" />
  <g
     transform="matrix(0.75146682,0,0,0.75146682,564.91647,-369.66251)"
     id="g3768" />
  <g
     transform="matrix(0.75146682,0,0,0.75146682,564.91647,-369.66251)"
     id="g3770" />
  <g
     transform="matrix(0.75146682,0,0,0.75146682,564.91647,-369.66251)"
     id="g3772" />
  <g
     transform="matrix(0.75146682,0,0,0.75146682,564.91647,-369.66251)"
     id="g3774" />
  <g
     transform="matrix(0.75146682,0,0,0.75146682,564.91647,-369.66251)"
     id="g3776" />
  <g
     transform="matrix(0.75146682,0,0,0.75146682,564.91647,-369.66251)"
     id="g3778" />
  <g
     transform="matrix(0.75146682,0,0,0.75146682,564.91647,-369.66251)"
     id="g3780" />
  <g
     transform="matrix(0.75146682,0,0,0.75146682,564.91647,-369.66251)"
     id="g3782" />
  <g
     transform="matrix(0.75146682,0,0,0.75146682,564.91647,-369.66251)"
     id="g3784" />
  <g
     transform="matrix(0.75146682,0,0,0.75146682,564.91647,-369.66251)"
     id="g3786" />
  <g
     transform="matrix(0.75146682,0,0,0.75146682,564.91647,-369.66251)"
     id="g3788" />
  <g
     transform="matrix(0.75146682,0,0,0.75146682,564.91647,-369.66251)"
     id="g3790" />
  <g
     id="g5036"
     transform="matrix(0.75146682,0,0,0.75146682,58.871731,-379.57165)" />
  <g
     id="g5038"
     transform="matrix(0.75146682,0,0,0.75146682,58.871731,-379.57165)" />
  <g
     id="g5040"
     transform="matrix(0.75146682,0,0,0.75146682,58.871731,-379.57165)" />
  <g
     id="g5042"
     transform="matrix(0.75146682,0,0,0.75146682,58.871731,-379.57165)" />
  <g
     id="g5044"
     transform="matrix(0.75146682,0,0,0.75146682,58.871731,-379.57165)" />
  <g
     id="g5046"
     transform="matrix(0.75146682,0,0,0.75146682,58.871731,-379.57165)" />
  <g
     id="g5048"
     transform="matrix(0.75146682,0,0,0.75146682,58.871731,-379.57165)" />
  <g
     id="g5050"
     transform="matrix(0.75146682,0,0,0.75146682,58.871731,-379.57165)" />
  <g
     id="g5052"
     transform="matrix(0.75146682,0,0,0.75146682,58.871731,-379.57165)" />
  <g
     id="g5054"
     transform="matrix(0.75146682,0,0,0.75146682,58.871731,-379.57165)" />
  <g
     id="g5056"
     transform="matrix(0.75146682,0,0,0.75146682,58.871731,-379.57165)" />
  <g
     id="g5058"
     transform="matrix(0.75146682,0,0,0.75146682,58.871731,-379.57165)" />
  <g
     id="g5060"
     transform="matrix(0.75146682,0,0,0.75146682,58.871731,-379.57165)" />
  <g
     id="g5062"
     transform="matrix(0.75146682,0,0,0.75146682,58.871731,-379.57165)" />
  <g
     id="g5064"
     transform="matrix(0.75146682,0,0,0.75146682,58.871731,-379.57165)" />
  <g
     id="g4534"
     transform="matrix(0.10050632,0,0,0.089921,49.987229,-1.0730948)">
    <path
       style="stroke:#000000;stroke-width:0.75146681;stroke-miterlimit:4;stroke-dasharray:none;stroke-opacity:1"
       id="path5610"
       d="M 445.31641,248.24219 C 442.60156,243.74609 437.73047,241 432.48047,241 c -44.29688,0 -84.85156,22.76953 -107.94531,60 H 146.63672 c -20.03125,0 -38.86719,7.80078 -53.031251,21.96875 L 4.890625,411.67969 c -5.851563,5.85547 -5.855469,15.35547 0,21.21484 36.429687,36.42578 74.660156,74.375 75.042969,74.75 5.855468,5.81641 15.304687,5.80078 21.148436,-0.0117 L 157.97656,451 h 125.66016 c 39.1914,0 74.83203,-21.55859 93,-56.26172 0.45703,-0.87109 45.89062,-87.57422 69.11719,-131.75781 2.44531,-4.65235 2.28125,-10.23828 -0.4375,-14.73828 z M 350.0625,380.82031 C 337.08594,405.60547 311.63281,421 283.63672,421 H 151.78516 c -3.96875,0 -7.77344,1.57031 -10.58204,4.36719 L 90.488281,475.84766 C 78.539062,463.97266 57.976562,443.51562 36.714844,422.28125 l 78.101566,-78.10156 c 8.5,-8.5 19.80078,-13.17969 31.82031,-13.17969 h 161.79687 l -11.51172,21.96484 C 294.32422,357.92187 289.23437,361 283.63672,361 H 181.78516 c -8.28516,0 -15,6.71484 -15,15 0,8.28516 6.71484,15 15,15 h 101.85156 c 16.78906,0 32.0625,-9.23828 39.85937,-24.10938 0.0117,-0.0273 23.15235,-44.17968 23.15235,-44.17968 12.5625,-23.76563 34,-40.82032 59.04297,-47.97266 -23.9336,45.59375 -55.2461,105.35547 -55.62891,106.08203 z m 0,0"
       inkscape:connector-curvature="0" />
    <rect
       ry="45.93819"
       y="70.136917"
       x="107.81153"
       height="169.28014"
       width="223.39874"
       id="rect5474-0"
       style="opacity:1;fill:#ffffff;fill-opacity:0.98416904;fill-rule:nonzero;stroke:#000000;stroke-width:24.04693794;stroke-linejoin:round;stroke-miterlimit:1.79999995;stroke-dasharray:none;stroke-dashoffset:0;stroke-opacity:1" />
    <rect
       ry="8.7986336"
       y="23.958546"
       x="183.6367"
       height="43.083324"
       width="81.320091"
       id="rect5497-5-4"
       style="opacity:1;fill:none;fill-opacity:0.98416904;fill-rule:nonzero;stroke:#000000;stroke-width:24.04693794;stroke-linejoin:round;stroke-miterlimit:1.79999995;stroke-dasharray:none;stroke-dashoffset:0;stroke-opacity:1" />
    <rect
       rx="0"
       ry="0"
       y="241.42291"
       x="162.48041"
       height="25.741756"
       width="122.86204"
       id="rect5514-9-1"
       style="opacity:1;fill:none;fill-opacity:0.98416904;fill-rule:nonzero;stroke:#000000;stroke-width:24.04693794;stroke-linejoin:round;stroke-miterlimit:1.79999995;stroke-dasharray:none;stroke-dashoffset:0;stroke-opacity:1" />
    <ellipse
       ry="18.729683"
       rx="23.957636"
       cy="127.54762"
       cx="260.46042"
       id="path5531-5-4"
       style="opacity:1;fill:#000000;fill-opacity:1;fill-rule:nonzero;stroke:#000000;stroke-width:4.13909245;stroke-linejoin:round;stroke-miterlimit:1.79999995;stroke-dasharray:none;stroke-dashoffset:0;stroke-opacity:1" />
    <ellipse
       ry="18.729683"
       rx="23.957636"
       cy="127.54762"
       cx="184.94226"
       id="path5531-5-7-0"
       style="opacity:1;fill:#000000;fill-opacity:1;fill-rule:nonzero;stroke:#000000;stroke-width:4.13909245;stroke-linejoin:round;stroke-miterlimit:1.79999995;stroke-dasharray:none;stroke-dashoffset:0;stroke-opacity:1" />
    <path
       style="fill:#000000;fill-opacity:1;stroke:#000000;stroke-width:12.27275085;stroke-miterlimit:4;stroke-dasharray:none;stroke-opacity:1"
       inkscape:connector-curvature="0"
       id="path3756-6-6"
       d="m 225.47015,192.38182 c -15.42411,0.0373 -30.22341,-5.57187 -41.09926,-15.57727 -2.22949,-2.11183 -2.16568,-5.47769 0.14269,-7.51774 2.25232,-1.98969 5.82267,-1.98969 8.07447,0 18.40705,16.04728 47.34412,16.04728 65.75177,0 2.30848,-2.03954 5.98769,-1.98123 8.21768,0.13055 2.17494,2.06047 2.17494,5.32666 0,7.38667 -10.87262,10.00337 -25.66751,15.61214 -41.08735,15.57776 z" />
  </g>
  <path
     style="fill:#000000;stroke-width:0.07702129"
     d="M 9.9084369,44.92962 0,44.910058 V 26.53181 8.1535741 h 9.7917049 9.7916921 l -0.189909,0.1861296 c -0.104462,0.1023334 -1.219642,1.1122265 -2.47822,2.2441213 l -2.288312,2.057979 H 9.6133073 4.5996585 v 14.006578 14.006566 l 14.6997475,-0.01958 14.699746,-0.01958 0.0173,-3.469275 0.0173,-3.469275 0.398407,-0.438583 c 0.219118,-0.241223 1.209022,-1.335152 2.19978,-2.430957 0.990755,-1.095806 1.81276,-1.980876 1.826681,-1.966824 0.01398,0.01411 0.02528,3.655604 0.02528,8.092333 v 8.066784 l -9.333485,-0.02542 C 24.017013,44.960636 15.358146,44.940426 9.9085098,44.929634 Z M 30.281102,27.64538 v -5.45872 l -0.627825,-0.09701 c -1.708046,-0.263938 -4.806466,-0.231016 -6.410796,0.06813 -0.751011,0.140033 -0.985486,0.198213 -1.892392,0.469536 -0.467021,0.139714 -1.667952,0.723054 -2.406029,1.16869 -1.754315,1.05925 -3.641944,2.674733 -5.412189,4.631949 -0.586134,0.648027 -1.878793,2.261235 -2.259515,2.81981 -0.136373,0.200076 -0.266598,0.344953 -0.289394,0.321945 -0.03979,-0.04019 0.06694,-1.197913 0.21474,-2.329236 0.689239,-5.273748 2.295032,-9.479331 4.70826,-12.330972 0.867077,-1.024584 1.839775,-1.84763 3.185929,-2.695759 1.611023,-1.01499 4.134688,-2.032722 6.474552,-2.611032 0.632457,-0.156307 1.270662,-0.314492 1.418227,-0.351526 0.32225,-0.08091 2.062966,-0.361866 2.759802,-0.445503 l 0.498292,-0.05975 0.03833,-5.3729678 L 30.319414,-8.2386091e-7 32.005956,1.845553 c 0.927599,1.0150435 1.926446,2.1096248 2.219673,2.4323939 0.293226,0.3227692 1.965677,2.1538581 3.716571,4.0691024 1.750883,1.9152307 3.388017,3.7085937 3.638046,3.9852397 0.250032,0.276646 0.682694,0.746741 0.961439,1.044665 0.426528,0.455856 1.443073,1.568056 2.255938,2.468231 C 44.908869,15.96841 45,16.093327 45,16.122696 c 0,0.05176 -0.50922,0.642651 -5.097966,5.916173 -1.180569,1.356749 -2.26581,2.609368 -2.411628,2.783587 -0.145825,0.17422 -0.52713,0.61275 -0.847359,0.974523 -0.754749,0.852654 -1.816633,2.072138 -4.211377,4.836456 -1.069256,1.234255 -1.99056,2.295102 -2.047343,2.357421 -0.08663,0.09515 -0.103264,-0.764746 -0.103264,-5.345396 z"
     id="path4547"
     inkscape:connector-curvature="0" />
</svg>
