<?xml version="1.0" encoding="UTF-8" standalone="no"?>
<svg
   xmlns:dc="http://purl.org/dc/elements/1.1/"
   xmlns:cc="http://creativecommons.org/ns#"
   xmlns:rdf="http://www.w3.org/1999/02/22-rdf-syntax-ns#"
   xmlns:svg="http://www.w3.org/2000/svg"
   xmlns="http://www.w3.org/2000/svg"
   xmlns:sodipodi="http://sodipodi.sourceforge.net/DTD/sodipodi-0.dtd"
   xmlns:inkscape="http://www.inkscape.org/namespaces/inkscape"
   height="45mm"
   viewBox="0 0 94.999999 44.999999"
   width="95mm"
   version="1.1"
   id="svg5614"
   sodipodi:docname="move_to_inStock.svg"
   inkscape:version="0.92.1 r15371">
  <metadata
     id="metadata5620">
    <rdf:RDF>
      <cc:Work
         rdf:about="">
        <dc:format>image/svg+xml</dc:format>
        <dc:type
           rdf:resource="http://purl.org/dc/dcmitype/StillImage" />
        <dc:title></dc:title>
      </cc:Work>
    </rdf:RDF>
  </metadata>
  <defs
     id="defs5618" />
  <sodipodi:namedview
     pagecolor="#ffffff"
     bordercolor="#666666"
     borderopacity="1"
     objecttolerance="10"
     gridtolerance="10"
     guidetolerance="10"
     inkscape:pageopacity="0"
     inkscape:pageshadow="2"
     inkscape:window-width="1920"
     inkscape:window-height="1017"
     id="namedview5616"
     showgrid="true"
     inkscape:zoom="0.67351921"
     inkscape:cx="235.71299"
     inkscape:cy="-62.584587"
     inkscape:window-x="-8"
     inkscape:window-y="-8"
     inkscape:window-maximized="1"
     inkscape:current-layer="svg5614"
     units="mm"
     scale-x="2"
     inkscape:document-units="mm">
    <inkscape:grid
       type="xygrid"
       id="grid5668" />
  </sodipodi:namedview>
  <g
     transform="matrix(0.75146682,0,0,0.75146682,564.91647,-369.66251)"
     id="g3762" />
  <g
     transform="matrix(0.75146682,0,0,0.75146682,564.91647,-369.66251)"
     id="g3764" />
  <g
     transform="matrix(0.75146682,0,0,0.75146682,564.91647,-369.66251)"
     id="g3766" />
  <g
     transform="matrix(0.75146682,0,0,0.75146682,564.91647,-369.66251)"
     id="g3768" />
  <g
     transform="matrix(0.75146682,0,0,0.75146682,564.91647,-369.66251)"
     id="g3770" />
  <g
     transform="matrix(0.75146682,0,0,0.75146682,564.91647,-369.66251)"
     id="g3772" />
  <g
     transform="matrix(0.75146682,0,0,0.75146682,564.91647,-369.66251)"
     id="g3774" />
  <g
     transform="matrix(0.75146682,0,0,0.75146682,564.91647,-369.66251)"
     id="g3776" />
  <g
     transform="matrix(0.75146682,0,0,0.75146682,564.91647,-369.66251)"
     id="g3778" />
  <g
     transform="matrix(0.75146682,0,0,0.75146682,564.91647,-369.66251)"
     id="g3780" />
  <g
     transform="matrix(0.75146682,0,0,0.75146682,564.91647,-369.66251)"
     id="g3782" />
  <g
     transform="matrix(0.75146682,0,0,0.75146682,564.91647,-369.66251)"
     id="g3784" />
  <g
     transform="matrix(0.75146682,0,0,0.75146682,564.91647,-369.66251)"
     id="g3786" />
  <g
     transform="matrix(0.75146682,0,0,0.75146682,564.91647,-369.66251)"
     id="g3788" />
  <g
     transform="matrix(0.75146682,0,0,0.75146682,564.91647,-369.66251)"
     id="g3790" />
  <g
     id="g5036"
     transform="matrix(0.75146682,0,0,0.75146682,58.871731,-379.57165)" />
  <g
     id="g5038"
     transform="matrix(0.75146682,0,0,0.75146682,58.871731,-379.57165)" />
  <g
     id="g5040"
     transform="matrix(0.75146682,0,0,0.75146682,58.871731,-379.57165)" />
  <g
     id="g5042"
     transform="matrix(0.75146682,0,0,0.75146682,58.871731,-379.57165)" />
  <g
     id="g5044"
     transform="matrix(0.75146682,0,0,0.75146682,58.871731,-379.57165)" />
  <g
     id="g5046"
     transform="matrix(0.75146682,0,0,0.75146682,58.871731,-379.57165)" />
  <g
     id="g5048"
     transform="matrix(0.75146682,0,0,0.75146682,58.871731,-379.57165)" />
  <g
     id="g5050"
     transform="matrix(0.75146682,0,0,0.75146682,58.871731,-379.57165)" />
  <g
     id="g5052"
     transform="matrix(0.75146682,0,0,0.75146682,58.871731,-379.57165)" />
  <g
     id="g5054"
     transform="matrix(0.75146682,0,0,0.75146682,58.871731,-379.57165)" />
  <g
     id="g5056"
     transform="matrix(0.75146682,0,0,0.75146682,58.871731,-379.57165)" />
  <g
     id="g5058"
     transform="matrix(0.75146682,0,0,0.75146682,58.871731,-379.57165)" />
  <g
     id="g5060"
     transform="matrix(0.75146682,0,0,0.75146682,58.871731,-379.57165)" />
  <g
     id="g5062"
     transform="matrix(0.75146682,0,0,0.75146682,58.871731,-379.57165)" />
  <g
     id="g5064"
     transform="matrix(0.75146682,0,0,0.75146682,58.871731,-379.57165)" />
  <path
     style="fill:#000000;stroke-width:0.07702129"
     d="M 9.9084369,44.92962 0,44.910058 V 26.53181 8.1535741 h 9.7917049 9.7916921 l -0.189909,0.1861296 c -0.104462,0.1023334 -1.219642,1.1122265 -2.47822,2.2441213 l -2.288312,2.057979 H 9.6133073 4.5996585 v 14.006578 14.006566 l 14.6997475,-0.01958 14.699746,-0.01958 0.0173,-3.469275 0.0173,-3.469275 0.398407,-0.438583 c 0.219118,-0.241223 1.209022,-1.335152 2.19978,-2.430957 0.990755,-1.095806 1.81276,-1.980876 1.826681,-1.966824 0.01398,0.01411 0.02528,3.655604 0.02528,8.092333 v 8.066784 l -9.333485,-0.02542 C 24.017013,44.960636 15.358146,44.940426 9.9085098,44.929634 Z M 30.281102,27.64538 v -5.45872 l -0.627825,-0.09701 c -1.708046,-0.263938 -4.806466,-0.231016 -6.410796,0.06813 -0.751011,0.140033 -0.985486,0.198213 -1.892392,0.469536 -0.467021,0.139714 -1.667952,0.723054 -2.406029,1.16869 -1.754315,1.05925 -3.641944,2.674733 -5.412189,4.631949 -0.586134,0.648027 -1.878793,2.261235 -2.259515,2.81981 -0.136373,0.200076 -0.266598,0.344953 -0.289394,0.321945 -0.03979,-0.04019 0.06694,-1.197913 0.21474,-2.329236 0.689239,-5.273748 2.295032,-9.479331 4.70826,-12.330972 0.867077,-1.024584 1.839775,-1.84763 3.185929,-2.695759 1.611023,-1.01499 4.134688,-2.032722 6.474552,-2.611032 0.632457,-0.156307 1.270662,-0.314492 1.418227,-0.351526 0.32225,-0.08091 2.062966,-0.361866 2.759802,-0.445503 l 0.498292,-0.05975 0.03833,-5.3729678 L 30.319414,-8.2386091e-7 32.005956,1.845553 c 0.927599,1.0150435 1.926446,2.1096248 2.219673,2.4323939 0.293226,0.3227692 1.965677,2.1538581 3.716571,4.0691024 1.750883,1.9152307 3.388017,3.7085937 3.638046,3.9852397 0.250032,0.276646 0.682694,0.746741 0.961439,1.044665 0.426528,0.455856 1.443073,1.568056 2.255938,2.468231 C 44.908869,15.96841 45,16.093327 45,16.122696 c 0,0.05176 -0.50922,0.642651 -5.097966,5.916173 -1.180569,1.356749 -2.26581,2.609368 -2.411628,2.783587 -0.145825,0.17422 -0.52713,0.61275 -0.847359,0.974523 -0.754749,0.852654 -1.816633,2.072138 -4.211377,4.836456 -1.069256,1.234255 -1.99056,2.295102 -2.047343,2.357421 -0.08663,0.09515 -0.103264,-0.764746 -0.103264,-5.345396 z"
     id="path4547"
     inkscape:connector-curvature="0" />
  <g
     id="g5173"
     transform="matrix(0.34100419,0,0,0.35480433,38.25615,-17.421027)"
     style="stroke-width:0.97412676">
    <rect
       y="83.015343"
       x="51.419048"
       height="89.034233"
       width="96.681198"
       id="rect4994"
       style="opacity:1;fill:#ffffff;fill-opacity:0.98416904;fill-rule:nonzero;stroke:#000000;stroke-width:7.75790453;stroke-miterlimit:4;stroke-dasharray:none;stroke-opacity:1" />
    <path
       transform="matrix(0.52961241,0,0,0.15460176,-35.706643,51.595603)"
       inkscape:transform-center-y="-17.350315"
       inkscape:transform-center-x="0.14258511"
       d="M 360.1203,187.33176 153.97313,187.08501 257.26042,8.6796965 Z"
       inkscape:randomized="0"
       inkscape:rounded="0"
       inkscape:flatsided="true"
       sodipodi:arg2="1.5719933"
       sodipodi:arg1="0.52479577"
       sodipodi:r2="59.509605"
       sodipodi:r1="119.01921"
       sodipodi:cy="127.69882"
       sodipodi:cx="257.11795"
       sodipodi:sides="3"
       id="path5028"
       style="opacity:1;fill:#ffffff;fill-opacity:0.98416904;fill-rule:nonzero;stroke:#000000;stroke-width:24.83572578;stroke-miterlimit:4;stroke-dasharray:none;stroke-opacity:1"
       sodipodi:type="star" />
    <rect
       ry="11.844322"
       y="105.85416"
       x="70.333603"
       height="43.64579"
       width="57.989315"
       id="rect5474-0-1"
       style="opacity:1;fill:#ffffff;fill-opacity:0.98416904;fill-rule:nonzero;stroke:#000000;stroke-width:5.15475368;stroke-linejoin:round;stroke-miterlimit:1.79999995;stroke-dasharray:none;stroke-dashoffset:0;stroke-opacity:1" />
    <rect
       ry="2.2685668"
       y="93.947914"
       x="90.016121"
       height="11.108248"
       width="21.108875"
       id="rect5497-5-4-6"
       style="opacity:1;fill:none;fill-opacity:0.98416904;fill-rule:nonzero;stroke:#000000;stroke-width:5.15475368;stroke-linejoin:round;stroke-miterlimit:1.79999995;stroke-dasharray:none;stroke-dashoffset:0;stroke-opacity:1" />
    <rect
       rx="0"
       ry="0"
       y="150.01714"
       x="84.524429"
       height="6.637042"
       width="31.892235"
       id="rect5514-9-1-7"
       style="opacity:1;fill:none;fill-opacity:0.98416904;fill-rule:nonzero;stroke:#000000;stroke-width:5.15475368;stroke-linejoin:round;stroke-miterlimit:1.79999995;stroke-dasharray:none;stroke-dashoffset:0;stroke-opacity:1" />
    <ellipse
       ry="4.8291068"
       rx="6.2188659"
       cy="120.65646"
       cx="109.95782"
       id="path5531-5-4-2"
       style="opacity:1;fill:#000000;fill-opacity:1;fill-rule:nonzero;stroke:#000000;stroke-width:1.04309154;stroke-linejoin:round;stroke-miterlimit:1.79999995;stroke-dasharray:none;stroke-dashoffset:0;stroke-opacity:1" />
    <ellipse
       ry="4.8291068"
       rx="6.2188659"
       cy="120.65646"
       cx="90.355011"
       id="path5531-5-7-0-7"
       style="opacity:1;fill:#000000;fill-opacity:1;fill-rule:nonzero;stroke:#000000;stroke-width:1.04309154;stroke-linejoin:round;stroke-miterlimit:1.79999995;stroke-dasharray:none;stroke-dashoffset:0;stroke-opacity:1" />
    <path
       style="fill:#000000;fill-opacity:1;stroke:#000000;stroke-width:3.09285259;stroke-miterlimit:4;stroke-dasharray:none;stroke-opacity:1"
       inkscape:connector-curvature="0"
       id="path3756-6-6-7"
       d="m 100.87515,137.37278 c -4.003752,0.01 -7.845317,-1.4366 -10.668448,-4.01631 -0.578723,-0.5445 -0.56216,-1.41232 0.03704,-1.93831 0.58465,-0.51301 1.511432,-0.51301 2.09595,0 4.778057,4.13749 12.289468,4.13749 17.067688,0 0.59923,-0.52586 1.55427,-0.51083 2.13312,0.0337 0.56457,0.53125 0.56457,1.37338 0,1.90451 -2.82228,2.57919 -6.66271,4.02531 -10.66535,4.01644 z" />
  </g>
</svg>
