<?xml version="1.0" encoding="UTF-8" standalone="no"?>
<!-- Generator: Adobe Illustrator 19.0.0, SVG Export Plug-In . SVG Version: 6.00 Build 0)  -->

<svg
   xmlns:dc="http://purl.org/dc/elements/1.1/"
   xmlns:cc="http://creativecommons.org/ns#"
   xmlns:rdf="http://www.w3.org/1999/02/22-rdf-syntax-ns#"
   xmlns:svg="http://www.w3.org/2000/svg"
   xmlns="http://www.w3.org/2000/svg"
   xmlns:sodipodi="http://sodipodi.sourceforge.net/DTD/sodipodi-0.dtd"
   xmlns:inkscape="http://www.inkscape.org/namespaces/inkscape"
   version="1.1"
   id="Capa_1"
   x="0px"
   y="0px"
   viewBox="0 0 511.999 511.999"
   style="enable-background:new 0 0 511.999 511.999;"
   xml:space="preserve"
   sodipodi:docname="sold.svg"
   inkscape:version="0.92.1 r15371"><metadata
     id="metadata6340"><rdf:RDF><cc:Work
         rdf:about=""><dc:format>image/svg+xml</dc:format><dc:type
           rdf:resource="http://purl.org/dc/dcmitype/StillImage" /></cc:Work></rdf:RDF></metadata><defs
     id="defs6338" /><sodipodi:namedview
     pagecolor="#ffffff"
     bordercolor="#666666"
     borderopacity="1"
     objecttolerance="10"
     gridtolerance="10"
     guidetolerance="10"
     inkscape:pageopacity="0"
     inkscape:pageshadow="2"
     inkscape:window-width="1920"
     inkscape:window-height="1017"
     id="namedview6336"
     showgrid="true"
     inkscape:zoom="0.46093841"
     inkscape:cx="-112.81334"
     inkscape:cy="255.9995"
     inkscape:window-x="-8"
     inkscape:window-y="-8"
     inkscape:window-maximized="1"
     inkscape:current-layer="Capa_1"><inkscape:grid
       type="xygrid"
       id="grid6368" /></sodipodi:namedview><g
     id="g6303"
     style="stroke:#000000;stroke-width:9.07936192;stroke-miterlimit:4;stroke-dasharray:none;stroke-opacity:1"
     transform="matrix(1.4927975,0,0,1.4927975,-159.48622,-58.560795)"><g
       id="g6301"
       style="stroke:#000000;stroke-width:9.07936192;stroke-miterlimit:4;stroke-dasharray:none;stroke-opacity:1"><path
         d="m 314.096,183.923 c -8.936,5.171 -19.216,8.158 -30.233,8.164 -16.739,-0.006 -31.812,-6.762 -42.79,-17.722 -4.651,-4.651 -8.478,-10.08 -11.418,-16.023 h 65.095 c 4.737,0 8.581,-3.844 8.581,-8.581 0,-4.743 -3.844,-8.581 -8.581,-8.581 h -70.57 c -0.497,-3.129 -0.836,-6.322 -0.836,-9.599 0,-3.283 0.337,-6.476 0.836,-9.611 h 70.558 c 4.737,0 8.581,-3.844 8.581,-8.581 0,-4.743 -3.844,-8.581 -8.581,-8.581 h -65.083 c 2.946,-5.938 6.779,-11.362 11.424,-16.018 10.978,-10.967 26.052,-17.722 42.784,-17.729 11.018,0 21.297,2.992 30.233,8.164 4.101,2.38 9.353,0.979 11.728,-3.124 C 328.199,72 326.803,66.748 322.7,64.373 311.299,57.766 298.01,53.893 283.863,53.898 250.386,53.904 221.949,75.115 211.029,104.8 h -10.807 c -4.737,0 -8.581,3.838 -8.581,8.581 0,4.737 3.844,8.581 8.581,8.581 h 6.625 c -0.389,3.158 -0.658,6.349 -0.658,9.611 0,3.255 0.269,6.447 0.652,9.599 h -6.619 c -4.737,0.014 -8.581,3.858 -8.581,8.594 0,4.736 3.844,8.581 8.581,8.581 h 10.807 c 10.914,29.684 39.358,50.896 72.834,50.902 14.147,0 27.436,-3.862 38.837,-10.474 4.101,-2.38 5.497,-7.625 3.124,-11.728 -2.381,-4.102 -7.626,-5.498 -11.728,-3.124 z"
         id="path6299"
         style="stroke:#000000;stroke-width:9.07936192;stroke-miterlimit:4;stroke-dasharray:none;stroke-opacity:1"
         inkscape:connector-curvature="0" /></g></g><g
     id="g6305" /><g
     id="g6307" /><g
     id="g6309" /><g
     id="g6311" /><g
     id="g6313" /><g
     id="g6315" /><g
     id="g6317" /><g
     id="g6319" /><g
     id="g6321" /><g
     id="g6323" /><g
     id="g6325" /><g
     id="g6327" /><g
     id="g6329" /><g
     id="g6331" /><g
     id="g6333" /><path
     inkscape:connector-curvature="0"
     d="m 462.44284,238.64164 c -2.67866,-4.58342 -7.48482,-7.38284 -12.66483,-7.38284 -43.70639,0 -83.72045,23.21174 -106.50635,61.16527 H 167.74468 c -19.76423,0 -38.34907,7.95226 -52.32431,22.39539 l -87.532234,90.4338 c -5.773556,5.96919 -5.777411,15.65369 0,21.62686 35.944061,37.1332 73.664904,75.81944 74.042614,76.20171 5.77741,5.92938 15.10067,5.91344 20.86652,-0.0119 l 56.13609,-57.7327 h 123.98506 c 38.66896,0 73.83448,-21.97728 91.76026,-57.35437 0.45094,-0.88802 45.27888,-89.275 68.19582,-134.31669 2.41272,-4.7427 2.25085,-10.43711 -0.43166,-15.02451 z M 368.4587,373.79456 c -12.80357,25.26651 -37.9174,40.96002 -65.54028,40.96002 H 172.82449 c -3.91584,0 -7.66981,1.60081 -10.44098,4.452 l -50.03878,51.46086 C 100.55481,458.56181 80.266416,437.70747 59.288127,416.06071 l 77.060423,-79.61837 c 8.3867,-8.66508 19.53684,-13.43566 31.39613,-13.43566 h 159.64004 l -11.35825,22.39142 c -2.56303,5.0533 -7.58503,8.19122 -13.10805,8.19122 H 202.42458 c -8.17472,0 -14.80004,6.84525 -14.80004,15.29131 0,8.44606 6.62532,15.29131 14.80004,15.29131 h 100.49384 c 16.56525,0 31.63509,-9.41769 39.32802,-24.57761 0.0116,-0.0278 22.84372,-45.03768 22.84372,-45.03768 12.39504,-24.22718 33.54676,-41.6131 58.2559,-48.90434 -23.61455,46.47923 -54.50965,107.40158 -54.88736,108.14225 z m 0,0"
     id="path5610"
     style="stroke:#000000;stroke-width:0.75365478;stroke-miterlimit:4;stroke-dasharray:none;stroke-opacity:1" /></svg>